SplineFontDB: 3.0
FontName: myfont
FullName: myhiero
FamilyName: hiero
Weight: Normal
Copyright: 
Version: 0.0
ItalicAngle: 0
UnderlinePosition: 0
UnderlineWidth: 0
Ascent: 750
Descent: 250
sfntRevision: 0x00000000
LayerCount: 2
Layer: 0 0 "Back"  1
Layer: 1 0 "Fore"  0
XUID: [1021 545 239638922 7380646]
FSType: 4
OS2Version: 4
OS2_WeightWidthSlopeOnly: 0
OS2_UseTypoMetrics: 0
CreationTime: 1464882663
ModificationTime: 1483997881
PfmFamily: 81
TTFWeight: 400
TTFWidth: 5
LineGap: 200
VLineGap: 0
Panose: 0 0 0 0 0 0 0 0 0 0
OS2TypoAscent: 750
OS2TypoAOffset: 0
OS2TypoDescent: -250
OS2TypoDOffset: 0
OS2TypoLinegap: 200
OS2WinAscent: 775
OS2WinAOffset: 0
OS2WinDescent: 10
OS2WinDOffset: 0
HheadAscent: 750
HheadAOffset: 0
HheadDescent: -250
HheadDOffset: 0
OS2SubXSize: 0
OS2SubYSize: 0
OS2SubXOff: 0
OS2SubYOff: 0
OS2SupXSize: 0
OS2SupYSize: 0
OS2SupXOff: 0
OS2SupYOff: 0
OS2StrikeYSize: 0
OS2StrikeYPos: 0
OS2Vendor: 'NONE'
OS2CodePages: 00000000.00000000
OS2UnicodeRanges: 00000000.00000000.00000000.00000000
MarkAttachClasses: 1
DEI: 91125
LangName: 1033 "" "blah blahstyle" "Regular" "" "" "0.000" "" "" "" "" "" "" "" "" "" "" "blah" "blahstyle" 
Encoding: UnicodeBmp
UnicodeInterp: none
NameList: Adobe Glyph List
DisplaySize: -24
AntiAlias: 1
FitToEm: 1
WinInfo: 46 46 15
BeginPrivate: 2
BlueScale 8 0.039625
ExpansionFactor 4 0.06
EndPrivate
BeginChars: 65540 74

StartChar: .notdef
Encoding: 65536 -1 0
Width: 500
Flags: W
LayerCount: 2
Fore
SplineSet
50 -250 m 1
 50 750 l 1
 450 750 l 1
 450 -250 l 1
 50 -250 l 1
100 -200 m 1
 400 -200 l 1
 400 700 l 1
 100 700 l 1
 100 -200 l 1
EndSplineSet
Validated: 1
EndChar

StartChar: space
Encoding: 32 32 1
Width: 0
Flags: HW
LayerCount: 2
Fore
SplineSet
0 34 m 25
 72.375 48.0254 l 25
 84.25 32.5254 l 29
 0 0 l 25
 0 34 l 25
EndSplineSet
EndChar

StartChar: comma
Encoding: 44 44 13
Width: 0
Flags: HW
LayerCount: 2
Fore
SplineSet
0 532 m 25
 500 532 l 25
 500 469 l 25
 0 448 l 25
 0 532 l 25
EndSplineSet
EndChar

StartChar: seven
Encoding: 55 55 18
Width: 707
Flags: W
HStem: 0 21G<5 140.156 570.569 702> 218 67<235 472>
LayerCount: 2
Fore
SplineSet
472 285 m 1
 352 611 l 1
 235 285 l 1
 472 285 l 1
578 0 m 1
 497 218 l 1
 211 218 l 1
 133 0 l 1
 5 0 l 1
 5 2 l 1
 346 775 l 1
 381 775 l 1
 702 2 l 1
 702 0 l 1
 578 0 l 1
EndSplineSet
Validated: 1
EndChar

StartChar: eight
Encoding: 56 56 19
Width: 605
Flags: W
HStem: 0 84<213 374.81> 366 71<293 369.319> 661 89<212 375.318>
VStem: 95 118<84 183.867 583.867 661> 110 91<213.167 560.133> 429 100<492.233 616.215> 444 106<148.507 303.612>
LayerCount: 2
Fore
SplineSet
95 750 m 1xf0
 288 750 l 2
 447 750 529 678 529 579 c 0xf4
 529 495 478 428 391 405 c 1
 391 404 l 1
 505 378 550 305 550 226 c 0
 550 114 465 0 254 0 c 2
 95 0 l 1xf2
 110 394 l 1xe8
 95 750 l 1xf0
201 394 m 1xec
 213 84 l 1
 280 84 l 2
 383 84 444 134 444 234 c 0xf2
 444 312 379 361 293 366 c 1
 293 437 l 1
 376 448 429 483 429 556 c 0
 429 616 384 661 271 661 c 2
 212 661 l 1
 201 394 l 1xec
EndSplineSet
Validated: 1
EndChar

StartChar: nine
Encoding: 57 57 20
Width: 747
Flags: W
HStem: -10 85<338.381 571.531> 661 99<330.74 586.125>
VStem: 65 105<258.041 503.71>
LayerCount: 2
Fore
SplineSet
670 44 m 1
 635 23 546 -10 454 -10 c 0
 235 -10 65 133 65 378 c 0
 65 617 219 760 460 760 c 0
 552 760 636 738 677 725 c 1
 697 583 l 1
 695 583 l 1
 627 631 554 661 439 661 c 0
 328 661 170 594 170 391 c 0
 170 203 271 75 456 75 c 0
 535 75 615 107 688 159 c 1
 690 159 l 1
 670 44 l 1
EndSplineSet
Validated: 1
EndChar

StartChar: colon
Encoding: 58 58 21
Width: 775
Flags: W
HStem: 0 84<213 439.891> 660 90<212 454.355>
VStem: 95 118<84 183.867 583.867 660> 110 91<213.167 560.133> 604 106<261.52 503.928>
LayerCount: 2
Fore
SplineSet
201 394 m 1xd8
 213 84 l 1xe8
 329 84 l 2
 490 84 604 194 604 394 c 1
 603 561 493 660 347 660 c 2
 212 660 l 1
 201 394 l 1xd8
95 0 m 1
 110 394 l 1xd8
 95 750 l 1
 346 750 l 2
 550 750 710 628 710 389 c 0
 710 168 560 0 329 0 c 2
 95 0 l 1
EndSplineSet
Validated: 1
EndChar

StartChar: semicolon
Encoding: 59 59 22
Width: 569
Flags: W
HStem: 0 21G<95 496.652> 371 55<202 263.552>
VStem: 95 119<59 183.867 583.867 688>
LayerCount: 2
Fore
SplineSet
95 0 m 1
 110 394 l 1
 95 750 l 1
 484 750 l 1
 504 646 l 1
 502 646 l 1
 213 688 l 1
 202 426 l 1
 467 435 l 1
 457 342 l 1
 202 371 l 1
 214 59 l 1
 512 115 l 1
 514 115 l 1
 493 0 l 1
 95 0 l 1
EndSplineSet
Validated: 1
EndChar

StartChar: f
Encoding: 102 102 23
Width: 401
Flags: W
HStem: 0 21G<182.668 196.668> 365 101<63.47 139 240.001 346.046> 607 101<256.383 346.046>
VStem: 139 101.001<15.47 365 466 576.625>
LayerCount: 2
Fore
SplineSet
310 466 m 1
 324.667 466 336.834 461 346.501 451 c 0
 356.168 441 361.001 429 361.001 415 c 0
 361.001 401 356.168 389.167 346.501 379.5 c 0
 336.833 369.833 324.666 365 310.001 365 c 2
 240.001 365 l 1
 240.001 50 l 2
 240.001 36.667 235.001 25 225.001 15 c 0
 215.001 5 203.334 0 190.001 0 c 0
 175.334 0 163.167 5 153.5 15 c 0
 143.833 25 139 36.667 139 50 c 2
 139 365 l 1
 98 365 l 2
 84.667 365 73 369.833 63 379.5 c 0
 53 389.167 48 401 48 415 c 0
 48 429 53 441 63 451 c 0
 73 461 84.667 466 98 466 c 2
 139 466 l 1
 139 536 l 2
 139 540 140 550 142 566 c 0
 144 582 149.667 599.667 159 619 c 0
 173 648.333 193.167 670.5 219.5 685.5 c 0
 245.833 700.5 276 708 310 708 c 0
 324.667 708 336.834 703 346.501 693 c 0
 356.168 683 361.001 671.333 361.001 658 c 0
 361.001 644 356.168 632 346.501 622 c 0
 336.833 612 324.666 607 310.001 607 c 0
 291.333 607 277.666 603.833 269 597.5 c 0
 260.333 591.167 254.333 584 251 576 c 1
 251 577 l 1
 246.333 569 243.333 561 242 553 c 0
 240.667 545 240 539.333 240 536 c 2
 240 466 l 1
 310 466 l 1
EndSplineSet
Validated: 5
EndChar

StartChar: g
Encoding: 103 103 24
Width: 517
Flags: W
HStem: -243.002 101.002<201.627 328.557> 0 100.998<199.338 329.059> 364.998 101.002<200.269 327.514>
VStem: 47.001 101.001<155.264 310.234> 381.001 99.999<-87.2097 35 156.542 308.454>
LayerCount: 2
Fore
SplineSet
481 -10 m 2
 481 -38 476.334 -65.335 467.001 -92.002 c 0
 457.668 -118.669 444.335 -143.002 427.002 -165.002 c 1
 406.335 -187.002 381.335 -205.502 352.002 -220.502 c 0
 322.669 -235.502 293.002 -243.002 263.002 -243.002 c 2
 250.002 -243.002 l 1
 216.669 -240.336 185.502 -230.169 156.502 -212.502 c 0
 127.502 -194.835 103.335 -171.335 84.002 -142.002 c 1
 85.002 -142.002 l 1
 79.669 -131.336 77.002 -122.336 77.002 -115.002 c 0
 77.002 -106.335 79.002 -98.168 83.002 -90.501 c 0
 87.002 -82.834 92.669 -76.667 100.002 -72 c 0
 107.335 -66.667 116.668 -64 128.001 -64 c 0
 136.668 -64 144.501 -66 151.501 -70 c 0
 158.501 -74 164.668 -79.333 170.001 -86 c 0
 180.001 -102 192.668 -115 208.001 -125 c 0
 223.334 -135 239.334 -140.667 256.001 -142 c 1
 263.001 -142 l 2
 297.001 -142 326.001 -128.333 350.001 -101 c 1
 370.668 -75 381.001 -44.667 381.001 -10 c 2
 381.001 35 l 1
 360.334 24.333 340.334 15.833 321.001 9.5 c 0
 301.668 3.167 282.668 0 264.001 0 c 0
 234.001 0 205.834 6.16699 179.501 18.5 c 0
 153.168 30.833 130.168 47.5 110.501 68.5 c 0
 90.834 89.5 75.334 114.167 64.001 142.5 c 0
 52.668 170.833 47.001 201 47.001 233 c 0
 47.001 265 52.668 295.167 64.001 323.5 c 0
 75.334 351.833 90.834 376.5 110.501 397.5 c 0
 130.168 418.5 153.168 435.167 179.501 447.5 c 0
 205.834 459.833 234.001 466 264.001 466 c 0
 303.334 466 342.667 453.667 382 429 c 1
 387.333 439.667 394.5 448.5 403.5 455.5 c 0
 412.5 462.5 421.667 466 431 466 c 0
 444.333 466 456 461 466 451 c 0
 476 441 481 429.333 481 416 c 2
 481 -10 l 2
264.001 100.998 m 0
 280.001 100.998 295.167 104.331 309.5 110.998 c 0
 323.834 117.665 336.167 126.998 346.5 138.998 c 0
 356.835 150.998 365.168 164.998 371.5 180.998 c 0
 377.833 196.998 381 214.331 381 232.998 c 0
 381 250.998 377.833 267.998 371.5 283.998 c 0
 365.167 299.998 356.834 313.998 346.501 325.998 c 0
 336.168 337.998 323.835 347.498 309.502 354.498 c 0
 295.169 361.498 280.002 364.998 264.002 364.998 c 0
 248.002 364.998 232.835 361.498 218.502 354.498 c 0
 204.168 347.498 191.835 337.998 181.502 325.998 c 0
 171.169 313.998 163.002 299.998 157.002 283.998 c 0
 151.002 267.998 148.002 250.998 148.002 232.998 c 0
 148.002 214.331 151.002 196.998 157.002 180.998 c 0
 163.002 164.998 171.169 150.998 181.502 138.998 c 0
 191.835 126.998 204.168 117.665 218.501 110.998 c 0
 232.834 104.331 248.001 100.998 264.001 100.998 c 0
EndSplineSet
Validated: 1
EndChar

StartChar: h
Encoding: 104 104 25
Width: 488
Flags: W
HStem: 0 21.001G<90.3335 103.667 393.332 406.999> 365 101<147 309.123> 688 20G<90.3335 103.667>
VStem: 47 100<9.15527 365 466 698.845> 349.999 101<9.15629 324.796>
LayerCount: 2
Fore
SplineSet
423 364 m 0
 429.667 352 434.832 340.332 438.499 328.999 c 0
 442.166 317.666 444.999 307.333 446.999 298 c 0
 448.999 288.667 450.166 280.834 450.499 274.501 c 0
 450.832 268.168 450.999 264.001 450.999 262.001 c 2
 450.999 50.001 l 2
 450.999 36.668 445.999 25.001 435.999 15.001 c 0
 425.999 5.00101 413.999 0.00100708 399.999 0.00100708 c 0
 386.666 0.00100708 374.999 5.00101 364.999 15.001 c 0
 354.999 25.001 349.999 36.668 349.999 50.001 c 2
 349.999 262.001 l 2
 349.999 263.336 349.166 269.669 347.499 281 c 0
 345.832 292.335 340.999 304.668 332.999 318 c 0
 313.666 349.333 279.333 365 230 365 c 2
 147 365 l 1
 147 50 l 2
 147 36.667 142 25 132 15 c 0
 122 5 110.333 0 97 0 c 0
 83.667 0 72 5 62 15 c 0
 52 25 47 36.667 47 50 c 2
 47 658 l 2
 47 671.333 52 683 62 693 c 0
 72 703 83.667 708 97 708 c 0
 110.333 708 122 703 132 693 c 0
 142 683 147 671.333 147 658 c 2
 147 466 l 1
 230 466 l 2
 274 466 312.667 457.167 346 439.5 c 0
 379.333 421.833 405 396.666 423 364 c 0
EndSplineSet
Validated: 1
EndChar

StartChar: i
Encoding: 105 105 26
Width: 197
Flags: W
HStem: 0 21G<93.3335 107> 446 20G<93.3335 107> 576 101<59.1553 135.53>
VStem: 50 101<9.15527 450.53 591.47 667.845>
LayerCount: 2
Fore
SplineSet
100 0 m 0
 86.667 0 75 5 65 15 c 0
 55 25 50 36.667 50 50 c 2
 50 415 l 2
 50 429 55 441 65 451 c 0
 75 461 86.667 466 100 466 c 0
 114 466 126 461 136 451 c 0
 146 441 151 429 151 415 c 2
 151 50 l 2
 151 36.667 146 25 136 15 c 0
 126 5 114 0 100 0 c 0
151 627 m 0
 151 613 146 601 136 591 c 0
 126 581 114 576 100 576 c 0
 86.667 576 75 581 65 591 c 0
 55 601 50 613 50 627 c 0
 50 640.333 55 652 65 662 c 0
 75 672 86.667 677 100 677 c 0
 114 677 126 672 136 662 c 0
 146 652 151 640.333 151 627 c 0
EndSplineSet
Validated: 1
EndChar

StartChar: j
Encoding: 106 106 27
Width: 314
Flags: W
HStem: -182 100.997<58.1553 152.782> 445.999 20G<214.333 228> 576 101<186.47 262.845>
VStem: 171 101<-48.7831 450.529 591.47 667.845>
LayerCount: 2
Fore
SplineSet
272 627 m 0
 272 613 267 601 257 591 c 0
 247 581 235.333 576 222 576 c 0
 208 576 196 581 186 591 c 0
 176 601 171 613 171 627 c 0
 171 640.333 176 652 186 662 c 0
 196 672 208 677 222 677 c 0
 235.333 677 247 672 257 662 c 0
 267 652 272 640.333 272 627 c 0
99 -182 m 0
 85.667 -182 74 -177.003 64 -167.003 c 0
 54 -157.003 49 -145.336 49 -132.003 c 0
 49 -118.003 54 -106.003 64 -96.0029 c 0
 74 -86.0029 85.667 -81.0029 99 -81.0029 c 0
 118.333 -81.0029 132.333 -77.6699 141 -71.0029 c 0
 149.667 -64.3359 156 -56.6689 160 -48.0019 c 1
 160 -49.0019 l 1
 162.667 -44.3349 164.5 -39.6679 165.5 -35.0009 c 0
 166.5 -30.3339 167.667 -26.3339 169 -23.0009 c 2
 171 -11.0009 l 1
 171 414.999 l 2
 171 428.999 176 440.999 186 450.999 c 0
 196 460.999 207.667 465.999 221 465.999 c 0
 235 465.999 247 460.999 257 450.999 c 0
 267 440.999 272 428.999 272 414.999 c 2
 272 -10.0009 l 2
 272 -14.0009 271 -24.1679 269 -40.5009 c 0
 267 -56.8339 261 -74.6669 251 -93.9999 c 0
 237 -122.667 217 -144.5 191 -159.5 c 0
 165 -174.5 134.333 -182 99 -182 c 0
EndSplineSet
Validated: 1
EndChar

StartChar: k
Encoding: 107 107 28
Width: 459
Flags: W
HStem: 0 21G<90.3335 104 363.667 378> 445 20G<364 377.333> 688 20G<90.3335 104>
VStem: 47 101<9.15527 202 264 698.845>
LayerCount: 2
Fore
SplineSet
407 86 m 2
 412.333 80.667 416 75.167 418 69.5 c 0
 420 63.833 421 57.333 421 50 c 0
 421 36 416.333 24.333 407 15 c 0
 397 5 385 0 371 0 c 0
 356.333 0 344.666 5 336 15 c 2
 148 202 l 1
 148 50 l 2
 148 36.667 143 25 133 15 c 0
 123 5 111 0 97 0 c 0
 83.667 0 72 5 62 15 c 0
 52 25 47 36.667 47 50 c 2
 47 658 l 2
 47 671.333 52 683 62 693 c 0
 72 703 83.667 708 97 708 c 0
 111 708 123 703 133 693 c 0
 143 683 148 671.333 148 658 c 2
 148 264 l 1
 336 451 l 2
 345.333 460.333 357 465 371 465 c 0
 383.667 465 395.667 460.333 407 451 c 1
 416.333 440.333 421 428.333 421 415 c 0
 421 401.667 416.333 389.667 407 379 c 2
 260 232 l 1
 407 86 l 2
EndSplineSet
Validated: 1
EndChar

StartChar: l
Encoding: 108 108 29
Width: 197
Flags: W
HStem: 0 21G<93.3335 107> 688 20G<93.3335 107>
VStem: 50 101<9.15527 698.845>
LayerCount: 2
Fore
SplineSet
100 708 m 0
 114 708 126 703 136 693 c 0
 146 683 151 671.333 151 658 c 2
 151 50 l 2
 151 36.667 146 25 136 15 c 0
 126 5 114 0 100 0 c 0
 86.667 0 75 5 65 15 c 0
 55 25 50 36.667 50 50 c 2
 50 658 l 2
 50 671.333 55 683 65 693 c 0
 75 703 86.667 708 100 708 c 0
EndSplineSet
Validated: 1
EndChar

StartChar: m
Encoding: 109 109 30
Width: 623
Flags: W
HStem: 0 21G<89.3335 103 310.333 324.333 532.331 545.998> 365 101<162.78 244.166 391.501 465.359>
VStem: 46 101<9.15527 350.554> 267 102<15.47 351.221> 488.998 101<9.15527 350.392>
LayerCount: 2
Fore
SplineSet
429 466 m 0
 459 466 484.165 460 504.498 448 c 0
 524.831 436 541.331 421.167 553.998 403.5 c 0
 566.669 385.833 575.836 366.5 581.498 345.5 c 0
 587.165 324.5 589.998 305 589.998 287 c 2
 589.998 50 l 2
 589.998 36.667 584.998 25 574.998 15 c 0
 564.998 5 552.998 0 538.998 0 c 0
 525.665 0 513.998 5 503.998 15 c 0
 493.998 25 488.998 36.667 488.998 50 c 2
 488.998 287 l 2
 488.998 291 488.331 297.333 486.998 306 c 0
 485.665 314.667 482.665 323.667 477.998 333 c 0
 472.665 344.333 466.498 352.5 459.498 357.5 c 0
 452.498 362.5 442.331 365 428.998 365 c 0
 415.665 365 405.332 362.5 397.999 357.5 c 0
 390.666 352.5 384.333 344.333 379 333 c 0
 375 323.667 372.333 314.667 371 306 c 0
 369.667 297.333 369 291 369 287 c 2
 369 50 l 2
 369 36.667 364 25 354 15 c 0
 344 5 331.667 0 317 0 c 0
 303.667 0 292 5 282 15 c 0
 272 25 267 36.667 267 50 c 2
 267 287 l 2
 267 291 266.333 297.333 265 306 c 0
 263.667 314.667 261 323.667 257 333 c 0
 251.666 344.333 245.333 352.5 238 357.5 c 0
 230.666 362.5 220.333 365 207 365 c 0
 183.667 365 167 354.333 157 333 c 0
 153 323.667 150.333 314.667 149 306 c 0
 147.667 297.333 147 291 147 287 c 2
 147 50 l 2
 147 36.667 142 25 132 15 c 0
 122 5 110 0 96 0 c 0
 82.667 0 71 5 61 15 c 0
 51 25 46 36.667 46 50 c 2
 46 415 l 2
 46 429 51 441 61 451 c 0
 71 461 82.667 466 96 466 c 0
 102 466 108.333 464.333 115 461 c 0
 121.667 457.667 127.667 453.667 133 449 c 1
 145 454.333 157 458.5 169 461.5 c 0
 181 464.5 193.667 466 207 466 c 0
 229.667 466 250.167 462 268.5 454 c 0
 286.833 446 303 435.333 317 422 c 1
 332.333 435.333 349 446 367 454 c 0
 385 462 405.667 466 429 466 c 0
EndSplineSet
Validated: 1
EndChar

StartChar: n
Encoding: 110 110 31
Width: 488
Flags: W
HStem: -0.00100708 20.999G<90.3325 103.999 396.999 403.332> 446 20G<96.3325 101.333 394.333 407.667>
VStem: 46.999 101<9.15427 275.999> 351 99.999<191 456.844>
LayerCount: 2
Fore
SplineSet
401 466 m 0
 414.333 466 425.999 460.999 435.999 450.999 c 0
 445.999 440.999 450.999 428.999 450.999 414.999 c 2
 450.999 49.999 l 2
 450.999 39.332 447.999 29.665 441.999 20.998 c 0
 435.999 12.331 427.999 6.33099 417.999 2.99799 c 0
 412.666 0.997993 406.666 -0.00200653 399.999 -0.00200653 c 0
 393.999 -0.00200653 387.499 1.831 380.499 5.49799 c 0
 373.499 9.16498 367.666 13.332 362.999 17.999 c 2
 147.999 275.999 l 1
 147.999 49.999 l 2
 147.999 36.666 142.999 24.999 132.999 14.999 c 0
 122.999 4.99899 110.999 -0.00100708 96.999 -0.00100708 c 0
 83.666 -0.00100708 71.999 4.99899 61.999 14.999 c 0
 51.999 24.999 46.999 36.666 46.999 49.999 c 2
 46.999 414.999 l 2
 46.999 425.666 49.832 435.333 55.499 444 c 0
 61.166 452.667 68.999 459 78.999 463 c 0
 81.666 464.348 84.666 465.181 87.999 465.5 c 0
 91.333 465.833 94.666 466 97.999 466 c 0
 104.666 466 111.333 464 118 460 c 0
 124.667 456 130.667 452 136 448 c 1
 351 191 l 1
 351 415 l 2
 351 429 356 441 366 451 c 0
 376 461 387.667 466 401 466 c 0
EndSplineSet
Validated: 1
EndChar

StartChar: o
Encoding: 111 111 32
Width: 547
Flags: W
HStem: 0.00100708 100.998<206.075 353.106> 364.999 101.001<207.088 352.095>
VStem: 46 101<160.088 305.095> 411 101<159.075 306.106>
LayerCount: 2
Fore
SplineSet
279 466 m 0
 311 466 341.167 459.832 369.5 447.499 c 0
 397.833 435.166 422.5 418.333 443.5 397 c 0
 464.5 375.667 481.167 350.834 493.5 322.501 c 0
 505.833 294.168 512 264.001 512 232.001 c 0
 512 200.001 505.833 169.834 493.5 141.501 c 0
 481.167 113.168 464.5 88.501 443.5 67.501 c 0
 422.5 46.501 397.833 30.001 369.5 18.001 c 0
 341.167 6.00101 311 0.00100708 279 0.00100708 c 0
 247 0.00100708 216.833 6.00101 188.5 18.001 c 0
 160.167 30.001 135.5 46.501 114.5 67.501 c 0
 93.5 88.501 76.833 113.168 64.5 141.501 c 0
 52.167 169.834 46 200.001 46 232.001 c 0
 46 264.001 52.167 294.168 64.5 322.501 c 0
 76.833 350.835 93.5 375.668 114.5 397.001 c 0
 135.5 418.335 160.167 435.168 188.5 447.5 c 0
 216.833 459.833 247 466 279 466 c 0
279 100.999 m 0
 297.667 100.999 315 104.332 331 110.999 c 0
 347 117.666 361 126.999 373 138.999 c 0
 385 150.999 394.333 164.999 401 180.999 c 0
 407.667 196.999 411 213.999 411 231.999 c 0
 411 250.666 407.667 267.999 401 283.999 c 0
 394.333 299.999 385 313.999 373 325.999 c 0
 361 337.999 347 347.499 331 354.499 c 0
 315 361.499 297.667 364.999 279 364.999 c 0
 261 364.999 244 361.499 228 354.499 c 0
 212 347.499 198 337.999 186 325.999 c 0
 174 313.999 164.5 299.999 157.5 283.999 c 0
 150.5 267.999 147 250.666 147 231.999 c 0
 147 213.999 150.5 196.999 157.5 180.999 c 0
 164.5 164.999 174 150.999 186 138.999 c 0
 198 126.999 212 117.666 228 110.999 c 0
 244 104.332 261 100.999 279 100.999 c 0
EndSplineSet
Validated: 1
EndChar

StartChar: p
Encoding: 112 112 33
Width: 547
Flags: W
HStem: -243 21G<89.3335 103.333> 0.00100708 101<206.139 353.107> 365.001 101<207.048 352.096>
VStem: 46.002 100.999<-227.53 42 159.819 305.183> 411.002 100.999<158.895 305.926>
LayerCount: 2
Fore
SplineSet
96 -243 m 0
 82.667 -243 71.002 -237.999 61.002 -227.999 c 0
 51.002 -217.999 46.002 -206.332 46.002 -192.999 c 2
 46.002 416.001 l 2
 46.002 429.334 51.002 441.001 61.002 451.001 c 0
 71.002 461.001 82.669 466.001 96.002 466.001 c 0
 106.669 466.001 116.502 462.168 125.502 454.501 c 0
 134.502 446.834 141.669 437.334 147.002 426.001 c 1
 168.335 438.668 190.168 448.501 212.501 455.501 c 0
 234.834 462.501 257.001 466.001 279.001 466.001 c 0
 311.001 466.001 341.168 459.834 369.501 447.501 c 0
 397.834 435.168 422.501 418.501 443.501 397.501 c 0
 464.501 376.501 481.168 351.834 493.501 323.501 c 0
 505.834 295.168 512.001 265.001 512.001 233.001 c 0
 512.001 201.001 505.834 170.834 493.501 142.501 c 0
 481.168 114.168 464.501 89.501 443.501 68.501 c 0
 422.501 47.501 397.834 30.834 369.501 18.501 c 0
 341.168 6.16801 311.001 0.00100708 279.001 0.00100708 c 0
 258.334 0.00100708 236.834 3.668 214.501 11.001 c 0
 192.168 18.334 169.668 28.667 147.001 42 c 1
 147.001 -193 l 2
 147.001 -206.333 142.168 -218 132.501 -228 c 0
 122.834 -238 110.667 -243 96 -243 c 0
279.002 365.001 m 0
 261.002 365.001 244.002 361.501 228.002 354.501 c 0
 212.002 347.501 198.002 338.001 186.002 326.001 c 0
 174.002 314.001 164.502 300.001 157.502 284.001 c 0
 150.502 268.001 147.002 251.001 147.002 233.001 c 0
 147.002 214.334 150.502 197.001 157.502 181.001 c 0
 164.502 165.001 174.002 151.001 186.002 139.001 c 0
 198.002 127.001 212.002 117.668 228.002 111.001 c 0
 244.002 104.334 261.002 101.001 279.002 101.001 c 0
 297.669 101.001 315.002 104.334 331.002 111.001 c 0
 347.002 117.668 361.002 127.001 373.002 139.001 c 0
 385.002 151.001 394.335 165.001 401.002 181.001 c 0
 407.669 197.001 411.002 214.334 411.002 233.001 c 0
 411.002 251.001 407.669 268.001 401.002 284.001 c 0
 394.335 300.001 385.002 314.001 373.002 326.001 c 0
 361.002 338.001 347.002 347.501 331.002 354.501 c 0
 315.002 361.501 297.669 365.001 279.002 365.001 c 0
EndSplineSet
Validated: 1
EndChar

StartChar: q
Encoding: 113 113 34
Width: 547
Flags: W
HStem: -243.001 21G<454.333 468> -6.67572e-06 100.999<206.075 352.887> 364.999 101.001<207.088 351.996>
VStem: 46 101<159.905 304.912> 411 101<-233.846 41.999 159.157 305.841>
LayerCount: 2
Fore
SplineSet
512 -193 m 2
 512 -206.333 507 -218.001 497 -228.001 c 0
 487 -238.001 475 -243.001 461 -243.001 c 0
 447.667 -243.001 436 -238.001 426 -228.001 c 0
 416 -218.001 411 -206.334 411 -193.001 c 2
 411 41.999 l 1
 388.333 28.666 365.833 18.333 343.5 11 c 0
 321.167 3.66699 299.667 -6.67572e-06 279 -6.67572e-06 c 0
 247 -6.67572e-06 216.833 6.16698 188.5 18.5 c 0
 160.167 30.833 135.5 47.5 114.5 68.5 c 0
 93.5 89.5 76.833 114.167 64.5 142.5 c 0
 52.167 170.833 46 201 46 233 c 0
 46 265 52.167 295.167 64.5 323.5 c 0
 76.833 351.833 93.5 376.5 114.5 397.5 c 0
 135.5 418.5 160.167 435.167 188.5 447.5 c 0
 216.833 459.833 247 466 279 466 c 0
 300.334 466 322.167 462.333 344.5 455 c 0
 366.834 447.667 388.667 437.667 410 425 c 1
 415.335 437 422.668 446.833 432 454.5 c 0
 441.333 462.167 451 466 461 466 c 0
 475 466 487 461 497 451 c 0
 507 441 512 429.333 512 416 c 2
 512 -193 l 2
411 232.999 m 0
 411 250.999 407.667 267.999 401 283.999 c 0
 394.333 299.999 385 313.999 373 325.999 c 0
 361 337.999 347 347.499 331 354.499 c 0
 315 361.499 297.667 364.999 279 364.999 c 0
 261 364.999 244 361.499 228 354.499 c 0
 212 347.499 198 337.999 186 325.999 c 0
 174 313.999 164.5 299.999 157.5 283.999 c 0
 150.5 267.999 147 250.999 147 232.999 c 0
 147 214.332 150.5 196.999 157.5 180.999 c 0
 164.5 164.999 174 150.999 186 138.999 c 0
 198 126.999 212 117.666 228 110.999 c 0
 244 104.332 261 100.999 279 100.999 c 0
 297.667 100.999 315 104.332 331 110.999 c 0
 347 117.666 361 126.999 373 138.999 c 0
 385 150.999 394.333 164.999 401 180.999 c 0
 407.667 196.999 411 214.332 411 232.999 c 0
EndSplineSet
Validated: 1
EndChar

StartChar: r
Encoding: 114 114 35
Width: 313
Flags: W
HStem: 0 21G<92.3345 106.001> 364.999 101.001<156.752 255.531>
VStem: 49.001 101<9.15527 340.875>
LayerCount: 2
Fore
SplineSet
221 466 m 0
 234.333 466 246.001 460.999 256.001 450.999 c 0
 266.001 440.999 271.001 428.999 271.001 414.999 c 0
 271.001 400.999 266.001 389.166 256.001 379.499 c 0
 246.001 369.832 234.334 364.999 221.001 364.999 c 0
 209.668 364.999 197.501 363.332 184.501 359.999 c 0
 171.501 356.666 161.668 350.333 155.001 341 c 0
 153.666 338.333 152.333 335 151.001 331 c 0
 150.334 329 150.001 327.333 150.001 326 c 2
 150.001 50 l 2
 150.001 36.667 145.001 25 135.001 15 c 0
 125.001 5 113.001 0 99.001 0 c 0
 85.668 0 74.001 5 64.001 15 c 0
 54.001 25 49.001 36.667 49.001 50 c 2
 49.001 415 l 2
 49.001 429 54.001 441 64.001 451 c 0
 74.001 461 85.668 466 99.001 466 c 0
 105.668 466 112.168 464.5 118.501 461.5 c 0
 124.834 458.5 130.667 454.667 136 450 c 1
 148.667 455.333 162 459.333 176 462 c 0
 190 464.667 205 466 221 466 c 0
EndSplineSet
Validated: 1
EndChar

StartChar: s
Encoding: 115 115 36
Width: 430
Flags: W
HStem: -0.0049057 101.003<149.294 274.849> 385.998 102<171.292 292.206>
VStem: 66.0039 100.998<324.252 376.594> 291.004 99.999<126.438 183.207>
LayerCount: 2
Fore
SplineSet
294 286 m 0
 313.334 276.667 329.17 266.996 341.503 256.996 c 0
 353.836 246.996 363.503 236.996 370.503 226.996 c 0
 377.503 216.996 382.503 207.163 385.503 197.496 c 0
 388.503 187.829 390.336 178.996 391.003 170.996 c 2
 391.003 159.996 l 2
 391.003 141.329 387.836 123.162 381.503 105.495 c 0
 375.17 87.8281 365.337 71.9951 352.004 57.9951 c 0
 334.004 39.3281 312.837 24.9951 288.504 14.9951 c 0
 264.171 4.99509 237.338 -0.0049057 208.005 -0.0049057 c 0
 175.338 -0.0049057 145.338 7.49509 118.005 22.4951 c 0
 90.6719 37.4951 69.6719 57.6621 55.0049 82.9951 c 1
 50.3379 93.6621 48.0049 102.329 48.0049 108.996 c 0
 48.0049 117.663 50.0049 125.83 54.0049 133.497 c 0
 58.0049 141.164 64.3379 147.331 73.0049 151.998 c 0
 82.3379 156.665 90.6709 158.998 98.0039 158.998 c 0
 106.004 158.998 114.004 156.831 122.004 152.498 c 0
 130.004 148.165 136.337 141.665 141.004 132.998 c 0
 148.337 120.998 158.504 112.665 171.504 107.998 c 0
 184.504 103.331 196.671 100.998 208.004 100.998 c 0
 223.337 100.998 237.004 102.998 249.004 106.998 c 0
 261.004 110.998 270.671 117.331 278.004 125.998 c 1
 277.004 125.998 l 1
 286.337 135.331 291.004 147.998 291.004 163.998 c 1
 289.004 167.998 284.837 172.331 278.504 176.998 c 0
 272.171 181.665 264.504 186.498 255.504 191.498 c 0
 246.504 196.498 237.004 201.165 227.004 205.498 c 0
 217.004 209.831 207.337 212.998 198.004 214.998 c 1
 196.004 215.998 l 1
 181.337 219.998 166.337 225.498 151.004 232.498 c 0
 135.671 239.498 121.671 248.665 109.004 259.998 c 0
 96.3369 271.331 86.0039 284.831 78.0039 300.498 c 0
 70.0039 316.165 66.0039 334.665 66.0039 355.998 c 0
 66.0039 374.665 70.1709 391.998 78.5039 407.998 c 0
 86.8369 423.998 98.3369 437.998 113.004 449.998 c 0
 127.671 461.998 145.171 471.331 165.504 477.998 c 0
 185.837 484.665 207.67 487.998 231.003 487.998 c 0
 246.336 487.998 262.336 485.498 279.003 480.498 c 0
 295.67 475.498 310.67 468.665 324.003 459.998 c 0
 331.339 455.33 337.172 449.163 341.503 441.498 c 0
 345.836 433.831 348.003 425.998 348.003 417.998 c 0
 348.003 412.665 347.17 407.998 345.503 403.998 c 0
 343.831 399.998 341.664 395.665 339.003 390.998 c 1
 340.003 390.998 l 1
 330.67 375.665 316.67 367.998 298.003 367.998 c 0
 289.335 367.998 279.668 370.665 269.002 375.998 c 2
 271.002 374.998 l 2
 265.002 378.331 258.335 380.998 251.002 382.998 c 0
 243.669 384.998 237.002 385.998 231.002 385.998 c 0
 219.669 385.998 210.002 384.665 202.002 381.998 c 0
 194.002 379.331 187.335 376.331 182.002 372.998 c 0
 176.668 369.665 172.835 366.332 170.502 362.999 c 0
 168.169 359.666 167.002 357.333 167.002 356 c 0
 167.002 353.333 167.335 350.333 168.002 347 c 0
 168.669 343.667 170.669 340 174.002 336 c 0
 177.335 332 182.668 327.833 190.001 323.5 c 0
 197.334 319.167 207.667 315 221 311 c 0
 226.333 309.667 236 307 250 303 c 0
 264 299 278.667 293.333 294 286 c 0
EndSplineSet
Validated: 5
EndChar

StartChar: t
Encoding: 116 116 37
Width: 430
Flags: W
HStem: 0 21G<212.333 226> 365 101<63.47 169 269 375.53> 688 20G<212.333 226>
VStem: 169 100<15.47 365 466 692.53>
LayerCount: 2
Fore
SplineSet
341 466 m 1
 354.333 466 366 461 376 451 c 0
 386 441 391 429 391 415 c 0
 391 401 386 389.167 376 379.5 c 0
 366 369.833 354.333 365 341 365 c 2
 269 365 l 1
 269 50 l 2
 269 36.667 264.167 25 254.5 15 c 0
 244.833 5 233 0 219 0 c 0
 205.667 0 194 5 184 15 c 0
 174 25 169 36.667 169 50 c 2
 169 365 l 1
 98 365 l 2
 84.667 365 73 369.833 63 379.5 c 0
 53 389.167 48 401 48 415 c 0
 48 429 53 441 63 451 c 0
 73 461 84.667 466 98 466 c 2
 169 466 l 1
 169 658 l 2
 169 671.333 174 683 184 693 c 0
 194 703 205.667 708 219 708 c 0
 233 708 244.833 703 254.5 693 c 0
 264.167 683 269 671.333 269 658 c 2
 269 466 l 1
 341 466 l 1
EndSplineSet
Validated: 5
EndChar

StartChar: u
Encoding: 117 117 38
Width: 453
Flags: W
HStem: 0.00201416 101.001<170.119 293.277> 446 20.002G<90.3345 104.001 358.333 371.667>
VStem: 47.001 101<123.469 450.532> 315 100.001<122.607 456.845>
LayerCount: 2
Fore
SplineSet
365 466 m 0
 378.333 466 390.001 461.002 400.001 451.002 c 0
 410.001 441.002 415.001 429.002 415.001 415.002 c 2
 415.001 178.002 l 2
 415.001 174.669 414.001 164.502 412.001 147.502 c 0
 410.001 130.502 403.668 112.002 393.001 92.002 c 0
 377.668 62.002 356.168 39.169 328.501 23.502 c 0
 300.834 7.83501 268.667 0.00201416 232.001 0.00201416 c 0
 194.668 0.00201416 162.168 7.83502 134.501 23.502 c 0
 106.834 39.169 85.334 62.002 70.001 92.002 c 0
 58.668 112.002 52.001 130.502 50.001 147.502 c 0
 48.001 164.502 47.001 174.669 47.001 178.002 c 2
 47.001 415.002 l 2
 47.001 429.002 52.001 441.002 62.001 451.002 c 0
 72.001 461.002 83.668 466.002 97.001 466.002 c 0
 111.001 466.002 123.001 461.002 133.001 451.002 c 0
 143.001 441.002 148.001 429.002 148.001 415.002 c 2
 148.001 178.002 l 2
 148.001 176.669 148.668 171.502 150.001 162.502 c 0
 151.334 153.502 154.667 144.002 160 134.002 c 1
 165.333 126.669 172.833 119.336 182.5 112.003 c 0
 192.167 104.67 208.667 101.003 232 101.003 c 0
 254.667 101.003 271 104.67 281 112.003 c 0
 291 119.336 298.333 126.669 303 134.002 c 0
 308.336 143.335 311.669 152.668 313 162.001 c 0
 314.333 171.334 315 176.667 315 178 c 2
 315 415 l 2
 315 429 320 441 330 451 c 0
 340 461 351.667 466 365 466 c 0
EndSplineSet
Validated: 1
EndChar

StartChar: v
Encoding: 118 118 39
Width: 529
Flags: W
HStem: -3.05176e-05 21G<266.333 275.667> 445.999 20G<93.001 101.667 438.667 446.669>
LayerCount: 2
Fore
SplineSet
465 460 m 0
 474.333 456 481.331 449.831 485.998 441.498 c 0
 490.665 433.165 492.998 424.332 492.998 414.999 c 0
 492.998 410.332 492.498 406.332 491.498 402.999 c 0
 490.498 399.666 489.331 396.333 487.998 393 c 2
 314.998 28 l 2
 311.665 19.333 305.832 12.5 297.499 7.49997 c 0
 289.166 2.49997 280.333 -3.05176e-05 271 -3.05176e-05 c 0
 261.667 -3.05176e-05 252.834 2.83298 244.501 8.49997 c 0
 236.168 14.167 229.668 20.667 225.001 28 c 1
 52.001 393 l 2
 50.668 396.336 49.501 399.669 48.501 402.999 c 0
 47.501 406.332 47.001 410.332 47.001 414.999 c 0
 47.001 424.334 49.334 433.167 54.001 441.499 c 0
 58.668 449.832 65.668 455.999 75.001 459.999 c 1
 81.668 463.999 89.001 465.999 97.001 465.999 c 0
 106.334 465.999 115.167 463.332 123.5 457.999 c 0
 131.833 452.666 138 445.333 142 436 c 2
 271 168 l 1
 398 436 l 2
 402.667 444 409.167 451 417.5 457 c 0
 425.833 463 434.333 466 443 466 c 0
 450.337 466 457.67 464 465 460 c 0
EndSplineSet
Validated: 1
EndChar

StartChar: w
Encoding: 119 119 40
Width: 688
Flags: W
HStem: -0.00101376 21G<217.331 228.331 473.664 484.664> 444.999 21G<92.6646 101.332 343.667 357.667 601 609>
LayerCount: 2
Fore
SplineSet
624 463 m 1
 634.672 459 642.835 452.498 648.497 443.498 c 0
 654.164 434.498 656.997 424.998 656.997 414.998 c 0
 656.997 408.998 656.33 403.331 654.997 397.998 c 2
 526.997 32.998 l 2
 523.664 23.665 517.664 15.832 508.997 9.49899 c 0
 500.33 3.16599 490.33 -0.00101376 478.997 -0.00101376 c 0
 468.33 -0.00101376 458.663 3.16598 449.997 9.49899 c 0
 441.33 15.832 434.997 23.665 430.997 32.998 c 2
 350.997 261.998 l 1
 345.664 245.998 339.497 228.165 332.497 208.498 c 0
 325.497 188.831 318.497 168.831 311.497 148.498 c 0
 304.497 128.165 297.497 107.998 290.497 87.998 c 0
 283.497 67.998 276.997 49.665 270.997 32.998 c 0
 267.664 23.665 261.497 15.832 252.497 9.49899 c 0
 243.497 3.16599 233.664 -0.00101376 222.997 -0.00101376 c 0
 211.664 -0.00101376 201.664 3.16598 192.997 9.49899 c 0
 184.33 15.832 178.33 23.665 174.997 32.998 c 2
 46.9971 397.998 l 2
 45.6641 403.331 44.9971 408.998 44.9971 414.998 c 0
 44.9971 425.665 47.8301 435.332 53.4971 443.999 c 0
 59.1641 452.666 67.3311 458.999 77.9981 462.999 c 0
 83.3311 464.332 89.3311 464.999 95.9981 464.999 c 0
 106.665 464.999 116.332 462.166 124.999 456.499 c 0
 133.666 450.831 139.666 442.664 142.999 431.999 c 2
 222.999 203.999 l 1
 301.999 431.999 l 2
 305.332 443.334 311.332 451.667 319.999 456.999 c 0
 328.666 462.332 338.333 465.332 349 465.999 c 2
 353 465.999 l 2
 362.333 465.332 371.333 461.499 380 454.499 c 0
 388.667 447.499 395 439.999 399 431.999 c 1
 479 203.999 l 1
 559 431.999 l 2
 562.333 442.666 568.5 450.833 577.5 456.5 c 0
 586.5 462.167 596 465 606 465 c 0
 612 465 618 463.667 624 461 c 1
 624 463 l 1
EndSplineSet
Validated: 1
EndChar

StartChar: x
Encoding: 120 120 41
Width: 459
Flags: W
HStem: -0.00100708 21G<95 100.667> 449 20G<95.0001 105.667 367.333 376.667>
LayerCount: 2
Fore
SplineSet
411 84 m 2
 417.667 74 420.998 63.665 420.998 52.998 c 0
 420.998 36.998 414.331 23.998 400.998 13.998 c 0
 391.665 6.66499 381.665 2.998 370.998 2.998 c 0
 363.665 2.998 356.498 4.83101 349.498 8.498 c 0
 342.498 12.165 336.331 17.332 330.998 23.999 c 2
 235.998 150.999 l 1
 137.998 19.999 l 1
 132.665 14.666 126.332 9.99899 118.999 5.99899 c 0
 111.666 1.99899 104.333 -0.00100708 97 -0.00100708 c 0
 93 -0.00100708 88.167 0.832001 82.5 2.49899 c 0
 76.8331 4.16599 71.666 6.66598 66.999 9.99899 c 0
 61.666 15.332 56.999 21.332 52.999 27.999 c 0
 48.999 34.666 46.999 41.999 46.999 49.999 c 0
 46.999 54.666 47.999 59.833 49.999 65.5 c 0
 51.999 71.167 54.666 76 57.999 80 c 2
 171.999 234 l 1
 57.9991 389 l 1
 50.666 396.333 46.9991 406 46.9991 418 c 0
 46.9991 425.335 48.9991 432.668 52.9991 440 c 0
 56.9991 447.333 61.666 453.333 66.9991 458 c 0
 71.666 461.333 76.833 464 82.5001 466 c 0
 88.1671 468 93.0001 469 97.0001 469 c 0
 114.333 469 128 462.333 138 449 c 2
 236 318 l 1
 249.333 336.667 265 357.667 283 381 c 0
 301 404.334 317 425.667 331 445 c 0
 335.667 450.333 341.667 455 349 459 c 0
 356.334 463 363.667 465 371 465 c 0
 382.333 465 392.333 461.667 401 455 c 0
 414.333 445 421 432 421 416 c 0
 421 406 417.667 395.333 411 384 c 1
 299 234 l 1
 411 84 l 2
EndSplineSet
Validated: 1
EndChar

StartChar: y
Encoding: 121 121 42
Width: 529
Flags: W
HStem: -243.001 21G<156.335 162.668> 445.997 20G<93.001 101.667 438.667 446.669>
LayerCount: 2
Fore
SplineSet
316 30 m 1
 308.001 17.999 l 1
 204.001 -214.001 l 1
 198.668 -222.001 192.001 -228.834 184.001 -234.501 c 0
 176.001 -240.168 167.334 -243.001 158.001 -243.001 c 0
 154.668 -243.001 151.001 -242.668 147.001 -242.001 c 0
 143.001 -241.334 139.334 -240.334 136.001 -239.001 c 0
 126.668 -234.334 119.668 -227.834 115.001 -219.501 c 0
 110.334 -211.168 108.001 -202.335 108.001 -193.002 c 0
 108.001 -184.335 109.334 -177.335 112.001 -172.002 c 2
 213.001 51.998 l 1
 52.001 392.998 l 2
 50.668 396.334 49.501 399.667 48.501 402.997 c 0
 47.501 406.33 47.001 410.33 47.001 414.997 c 0
 47.001 424.332 49.334 433.165 54.001 441.497 c 0
 58.668 449.83 65.668 455.997 75.001 459.997 c 1
 81.668 463.997 89.001 465.997 97.001 465.997 c 0
 106.334 465.997 115.167 463.33 123.5 457.997 c 0
 131.833 452.664 138 445.331 142 435.998 c 2
 271 167.998 l 1
 398 435.998 l 2
 402.667 443.998 409.167 450.998 417.5 456.998 c 0
 425.833 462.998 434.333 465.998 443 465.998 c 0
 450.337 465.998 457.67 463.998 465 459.998 c 0
 474.333 455.998 481.333 449.831 486 441.498 c 0
 490.667 433.165 493 424.332 493 414.999 c 0
 493 410.332 492.5 406.332 491.5 402.999 c 0
 490.5 399.666 489.333 396.333 488 393 c 2
 316 30 l 1
EndSplineSet
Validated: 1
EndChar

StartChar: z
Encoding: 122 122 43
Width: 488
Flags: W
HStem: -0.000999451 101.001<205 441.845> 364.998 101<62.47 293>
LayerCount: 2
Fore
SplineSet
401 101 m 1
 414.333 101 426 95.999 436 85.999 c 0
 446 75.999 451 63.999 451 49.999 c 0
 451 36.666 446 24.999 436 14.999 c 0
 426 4.999 414.333 -0.000999451 401 -0.000999451 c 2
 97 -0.000999451 l 2
 87.667 -0.000999451 78.667 2.499 70 7.499 c 0
 61.333 12.499 55 19.666 51 28.999 c 0
 48.333 34.332 47 41.665 47 50.998 c 0
 47 62.998 50.667 73.665 58 82.998 c 2
 293 364.998 l 1
 97 364.998 l 2
 83.667 364.998 72 369.831 62 379.498 c 0
 52 389.165 47 400.998 47 414.998 c 0
 47 428.998 52 440.998 62 450.998 c 0
 72 460.998 83.667 465.998 97 465.998 c 2
 401 465.998 l 2
 410.335 465.998 419.168 462.998 427.5 456.998 c 0
 435.833 450.998 442.333 443.998 447 435.998 c 0
 448.333 432.665 449.333 429.332 450 425.999 c 0
 450.667 422.666 451 419.333 451 416 c 0
 451 404 447.333 392.667 440 382 c 1
 205 101 l 1
 401 101 l 1
EndSplineSet
Validated: 5
EndChar

StartChar: a
Encoding: 97 97 50
Width: 488
Flags: W
HStem: 1 100.999<160.998 297.462> 192 101.001<160.507 346.002> 365.001 100<180.361 319.187>
VStem: 47.002 100.001<112.319 174.817>
LayerCount: 2
Fore
SplineSet
451 50 m 2
 451 36.667 446.002 24.999 436.002 14.999 c 0
 426.002 4.999 414.335 -0.0010004 401.002 -0.0010004 c 0
 391.002 -0.0010004 381.502 3.499 372.502 10.499 c 0
 363.502 17.499 356.335 26.332 351.002 36.999 c 1
 329.669 25.666 307.002 16.833 283.002 10.5 c 0
 259.002 4.167 234.335 1 209.002 1 c 0
 167.002 1 132.502 11 105.502 31 c 0
 78.502 51 60.335 79.667 51.002 117 c 0
 48.335 127 47.002 137.667 47.002 149 c 0
 47.002 177.667 55.335 202.334 72.002 223.001 c 0
 82.669 237.668 95.669 249.501 111.002 258.501 c 0
 126.335 267.501 142.835 274.501 160.502 279.501 c 0
 178.169 284.501 196.669 288.001 216.002 290.001 c 0
 235.335 292.001 254.668 293.001 274.001 293.001 c 0
 284.668 293.001 297.168 292.668 311.501 292.001 c 0
 325.834 291.33 338.001 290.663 348.001 290.001 c 1
 345.332 303.334 341.665 315.834 337.001 327.501 c 0
 332.332 339.168 326.665 347.001 320.001 351.001 c 0
 302.668 360.334 283.668 365.001 263.001 365.001 c 0
 241.668 365.001 221.168 361.001 201.501 353.001 c 0
 181.834 345.001 166.334 336.334 155.001 327.001 c 0
 150.334 323.001 145.167 320.168 139.5 318.501 c 0
 133.833 316.834 128.333 316.001 123 316.001 c 0
 108.333 316.001 95.333 321.668 84 333.001 c 1
 76.667 342.334 73 353.334 73 366.001 c 0
 73 382.001 79 394.668 91 404.001 c 1
 110.333 421.334 132.166 434.834 156.499 444.501 c 0
 180.832 454.168 206.665 460.668 233.998 464.001 c 0
 239.331 464.668 243.998 465.001 247.998 465.001 c 2
 260.998 465.001 l 2
 278.998 465.001 297.665 462.501 316.998 457.501 c 0
 336.332 452.501 353.665 446.334 368.998 439.001 c 1
 387.665 427.668 402.332 413.501 412.999 396.501 c 0
 423.666 379.501 431.833 362.834 437.5 346.501 c 0
 443.167 330.168 446.667 315.668 448 303.001 c 0
 449.333 290.333 450 282.666 450 280 c 2
 450 117 l 1
 451 50 l 2
346.002 188.999 m 1
 336.669 189.666 326.171 190.334 314.504 191 c 0
 302.837 191.667 291.337 192 280.004 192 c 0
 265.337 192 250.17 191.333 234.503 190 c 0
 218.836 188.665 204.503 186.332 191.503 183 c 0
 178.503 179.667 167.836 175.167 159.503 169.5 c 0
 151.17 163.833 147.003 156.666 147.003 147.999 c 0
 147.003 131.332 153.503 119.499 166.503 112.499 c 0
 179.503 105.499 193.67 101.999 209.003 101.999 c 0
 219.67 101.999 228.67 102.499 236.003 103.499 c 0
 243.336 104.499 248.336 105.332 251.003 105.999 c 0
 252.336 106.666 253.669 106.999 255.002 106.999 c 0
 276.336 111.666 293.669 119.499 307.002 130.499 c 0
 320.335 141.499 330.002 151.999 336.002 161.999 c 1
 346.002 188.999 l 1
EndSplineSet
Validated: 1
EndChar

StartChar: b
Encoding: 98 98 51
Width: 517
Flags: W
HStem: 0.00100708 100.998<199.032 328.664> 364.999 101.001<200.082 327.734> 688 20G<90.3335 104>
VStem: 47 101.002<154.614 310.384 429 698.845> 381 100.001<156.408 308.092>
LayerCount: 2
Fore
SplineSet
264 466 m 0
 294 466 322.168 459.832 348.501 447.499 c 0
 374.834 435.166 397.834 418.333 417.501 397 c 0
 437.168 375.667 452.668 350.834 464.001 322.501 c 0
 475.334 294.168 481.001 264.001 481.001 232.001 c 0
 481.001 200.001 475.334 169.834 464.001 141.501 c 0
 452.668 113.168 437.168 88.501 417.501 67.501 c 0
 397.834 46.501 374.834 30.001 348.501 18.001 c 0
 322.168 6.00101 294.001 0.00100708 264.001 0.00100708 c 0
 244.001 0.00100708 224.168 3.168 204.501 9.50101 c 0
 184.834 15.834 165.667 24.667 147 36 c 1
 141 26 133.5 17.5 124.5 10.5 c 0
 115.5 3.50001 106.333 7.62939e-06 97 7.62939e-06 c 0
 83.667 7.62939e-06 72 5.00001 62 15 c 0
 52 25 47 36.667 47 50 c 2
 47 658 l 2
 47 671.333 52 683 62 693 c 0
 72 703 83.667 708 97 708 c 0
 111 708 123 703 133 693 c 0
 143 683 148 671.333 148 658 c 2
 148 429 l 1
 168 440.333 188 449.333 208 456 c 0
 228 462.667 246.667 466 264 466 c 0
264.001 100.999 m 0
 280.001 100.999 295.167 104.332 309.5 110.999 c 0
 323.834 117.666 336.167 126.999 346.5 138.999 c 0
 356.835 150.999 365.168 164.999 371.5 180.999 c 0
 377.833 196.999 381 213.999 381 231.999 c 0
 381 250.666 377.833 267.999 371.5 283.999 c 0
 365.167 299.999 356.834 313.999 346.501 325.999 c 0
 336.168 337.999 323.835 347.499 309.502 354.499 c 0
 295.169 361.499 280.002 364.999 264.002 364.999 c 0
 248.002 364.999 232.835 361.499 218.502 354.499 c 0
 204.168 347.499 191.835 337.999 181.502 325.999 c 0
 171.169 313.999 163.002 299.999 157.002 283.999 c 0
 151.002 267.999 148.002 250.666 148.002 231.999 c 0
 148.002 213.999 151.002 196.999 157.002 180.999 c 0
 163.002 164.999 171.169 150.999 181.502 138.999 c 0
 191.835 126.999 204.168 117.666 218.501 110.999 c 0
 232.834 104.332 248.001 100.999 264.001 100.999 c 0
EndSplineSet
Validated: 1
EndChar

StartChar: c
Encoding: 99 99 52
Width: 422
Flags: W
HStem: 0 100.999<200.947 331.844> 348.999 117<265 356.723> 364.999 101<201.697 344.721>
VStem: 48 101.001<156.407 308.091>
LayerCount: 2
Fore
SplineSet
265 0 m 1xb0
 235 0 206.833 5.99902 180.5 17.999 c 0
 154.167 29.999 131.167 46.499 111.5 67.499 c 0
 91.833 88.499 76.333 113.166 65 141.499 c 0
 53.667 169.832 48 199.999 48 231.999 c 0
 48 263.999 53.667 294.166 65 322.499 c 0
 76.333 350.833 91.833 375.666 111.5 396.999 c 0
 131.167 418.333 154.167 435.166 180.5 447.499 c 0
 206.833 459.832 235 465.999 265 465.999 c 0
 281 465.999 296.5 464.166 311.5 460.499 c 0
 326.5 456.829 341 451.662 355 444.999 c 0
 373.667 435.666 383 420.666 383 399.999 c 0
 383 393.332 381.333 385.999 378 377.999 c 0
 374 368.666 367.833 361.499 359.5 356.499 c 0
 351.167 351.499 342.334 348.999 333.001 348.999 c 0xd0
 327.001 348.999 319.668 350.666 311.001 353.999 c 0
 296.334 361.332 281.001 364.999 265.001 364.999 c 0
 249.001 364.999 234.001 361.499 220.001 354.499 c 0
 206.001 347.499 193.834 337.999 183.501 325.999 c 0
 173.167 313.999 164.834 299.999 158.501 283.999 c 0
 152.168 267.999 149.001 250.666 149.001 231.999 c 0
 149.001 213.999 152.168 196.999 158.501 180.999 c 0
 164.834 164.999 173.167 150.999 183.5 138.999 c 0
 193.833 126.999 206 117.666 220 110.999 c 0
 234 104.332 249 100.999 265 100.999 c 0
 282.334 100.999 297.667 104.332 311 110.999 c 0
 314.333 112.999 317.833 114.332 321.5 114.999 c 0
 325.167 115.666 328.667 115.999 332 115.999 c 0
 341.333 115.999 350.333 113.499 359 108.499 c 0
 367.667 103.499 374 96.332 378 86.999 c 0
 379.333 83.666 380.5 80.333 381.5 77 c 0
 382.5 73.667 383 70 383 66 c 0
 383 56.667 380.667 47.667 376 39 c 0
 371.333 30.333 364.333 24 355 20 c 0
 326.333 6.66697 296.333 -3.05176e-05 265 -3.05176e-05 c 1
 265 0 l 1xb0
EndSplineSet
Validated: 1
EndChar

StartChar: d
Encoding: 100 100 53
Width: 547
Flags: W
HStem: 0 100.999<206.073 352.845> 364.999 101<207.085 352.029> 688 20G<454.331 467.997>
VStem: 46 100.997<160.087 305.093> 410.997 101<159.157 305.841 424 698.845>
LayerCount: 2
Fore
SplineSet
46 232 m 0
 46 264 52.1641 294.166 64.4971 322.499 c 0
 76.8301 350.833 93.4971 375.666 114.497 396.999 c 0
 135.497 418.333 160.164 435.166 188.497 447.499 c 0
 216.83 459.832 246.997 465.999 278.997 465.999 c 0
 299.664 465.999 321.164 462.332 343.497 454.999 c 0
 365.83 447.666 388.33 437.333 410.997 424 c 1
 410.997 658 l 2
 410.997 671.333 415.997 683 425.997 693 c 0
 435.997 703 447.664 708 460.997 708 c 0
 474.997 708 486.997 703 496.997 693 c 0
 506.997 683 511.997 671.333 511.997 658 c 2
 511.997 50 l 2
 511.997 36.667 506.997 25 496.997 15 c 0
 486.997 5 474.997 0 460.997 0 c 0
 450.997 0 441.33 3.83301 431.997 11.5 c 0
 422.664 19.167 415.331 29 409.998 41 c 1
 388.665 28.333 366.832 18.333 344.499 11 c 0
 322.166 3.667 300.333 0 279 0 c 0
 247 0 216.833 6 188.5 18 c 0
 160.167 30 135.5 46.5 114.5 67.5 c 0
 93.5001 88.5 76.8331 113.167 64.5001 141.5 c 0
 52.1671 169.833 46.0001 200 46 232 c 0
146.997 231.999 m 0
 146.997 213.999 150.497 196.999 157.497 180.999 c 0
 164.497 164.999 173.997 150.999 185.997 138.999 c 0
 197.997 126.999 211.997 117.666 227.997 110.999 c 0
 243.997 104.332 260.997 100.999 278.997 100.999 c 0
 297.664 100.999 314.997 104.332 330.997 110.999 c 0
 346.997 117.666 360.997 126.999 372.997 138.999 c 0
 384.997 150.999 394.33 164.999 400.997 180.999 c 0
 407.664 196.999 410.997 213.999 410.997 231.999 c 0
 410.997 250.666 407.664 267.999 400.997 283.999 c 0
 394.33 299.999 384.997 313.999 372.997 325.999 c 0
 360.997 337.999 346.997 347.499 330.997 354.499 c 0
 314.997 361.499 297.664 364.999 278.997 364.999 c 0
 260.997 364.999 243.997 361.499 227.997 354.499 c 0
 211.997 347.499 197.997 337.999 185.997 325.999 c 0
 173.997 313.999 164.497 299.999 157.497 283.999 c 0
 150.497 267.999 146.997 250.666 146.997 231.999 c 0
EndSplineSet
Validated: 1
EndChar

StartChar: e
Encoding: 101 101 54
Width: 488
Flags: W
HStem: 0 100.999<193.63 336.781> 193.002 101<157.998 342.998> 362.002 104<192.664 312.253>
LayerCount: 2
Fore
SplineSet
264 0 m 1
 255.333 0 249.664 0.334961 246.997 1.00195 c 0
 216.33 2.33496 187.997 9.33496 161.997 22.0019 c 0
 135.997 34.6689 114.33 52.0019 96.9971 74.002 c 0
 63.6641 116.669 46.9971 169.669 46.9971 233.002 c 0
 46.9971 265.002 52.3301 295.169 62.9971 323.502 c 0
 73.6641 351.835 88.1641 376.502 106.497 397.502 c 0
 124.83 418.502 146.163 435.169 170.496 447.502 c 0
 194.829 459.835 220.996 466.002 248.996 466.002 c 0
 305.663 466.002 353.996 444.002 393.996 400.002 c 0
 412.663 379.335 426.83 355.668 436.497 329.002 c 0
 446.164 302.335 450.997 274.002 450.997 244.002 c 0
 450.997 230.002 445.997 218.002 435.997 208.002 c 0
 425.997 198.002 414.33 193.002 400.997 193.002 c 2
 149.997 193.002 l 1
 153.33 182.335 157.83 171.668 163.497 161.001 c 0
 169.164 150.334 175.997 140.667 183.997 132 c 0
 191.997 123.333 201.497 116.166 212.497 110.499 c 0
 223.497 104.832 236.33 101.665 250.997 100.999 c 2
 256.997 100.999 l 2
 265.664 100.999 276.831 101.832 290.498 103.499 c 0
 304.165 105.166 318.332 110.999 332.999 120.999 c 1
 343.666 126.332 353.333 128.999 362 128.999 c 0
 370.667 128.999 379.167 126.666 387.5 121.999 c 0
 395.835 117.332 402.668 110.332 408 100.999 c 1
 411.333 98.3319 413 91.3319 413 79.9989 c 0
 413 62.6659 405 47.9989 389 35.9989 c 1
 365.667 20.6659 342.5 10.8329 319.5 6.49993 c 0
 296.5 2.16693 278 -6.81877e-05 264 -6.81877e-05 c 1
 264 0 l 1
342.998 294.002 m 1
 332.998 316.669 321.331 333.669 307.998 345.002 c 0
 294.665 356.335 275.998 362.002 251.998 362.002 c 0
 228.665 362.002 210.165 356.002 196.498 344.002 c 0
 182.831 332.002 169.998 315.335 157.998 294.002 c 1
 342.998 294.002 l 1
EndSplineSet
Validated: 1
EndChar

StartChar: Amacron
Encoding: 256 256 55
Width: 1000
Flags: HW
HStem: 77 40<53 184 225 368 409 561 602 751 792 960.991> 399 39<294 315.672 477 500.68 671 694.076 863 883.143> 495 40<139.059 222 268 327 365.681 405 452 511 548.595 599 645 704 741.632 791 836 896 935.075 992.948> 575 40<277.658 322.89 463.209 505.284 656.336 698.946 871.001 892.825>
VStem: 221 40<442.218 494> 327 40<445.724 494 534 576.159> 405 40<440.192 494> 511 40<444.912 494 535 574.043> 598 40<440.115 495> 704 40<444.912 495 535 574.043> 790 40<445.19 495> 896 40<449.969 495 535 578.084>
LayerCount: 2
Fore
SplineSet
857.15 592.1 m 5
 863.8 591.1 877.1 591.1 892.3 574.1 c 4
 904.65 560.1 916.05 535.1 917.95 508.1 c 5
 951.2 508.1 l 6
 961.65 508.1 969.25 500.1 970.2 489.1 c 5
 970.2 488.1 l 6
 970.2 478.1 961.65 469.1 951.2 469.1 c 6
 916.05 469.1 l 5
 907.5 394.1 872.35 377.1 846.7 376.1 c 5
 779.25 90.0996 l 5
 918.9 90.0996 l 5
 934.1 81.0996 939.8 75.0996 939.8 70.0996 c 4
 939.8 62.0996 927.45 56.0996 918.9 50.0996 c 5
 46.7998 50.0996 l 6
 40.1504 50.0996 34.4502 53.0996 30.6504 59.0996 c 4
 28.75 63.0996 27.7998 66.0996 27.7998 70.0996 c 4
 27.7998 73.0996 28.75 76.0996 30.6504 79.0996 c 4
 51.5498 123.1 58.2002 162.1 91.4502 206.1 c 4
 125.65 251.1 154.15 254.1 189.3 289.1 c 5
 221.6 323.1 236.8 348.1 266.25 386.1 c 5
 248.2 399.1 236.8 423.1 236.8 447.1 c 4
 236.8 454.1 236.8 460.1 237.75 467.1 c 5
 177.9 467.1 l 6
 167.45 467.1 158.9 475.1 158.9 486.1 c 6
 158.9 487.1 l 6
 158.9 497.1 167.45 507.1 177.9 507.1 c 6
 241.55 507.1 l 5
 248.2 539.1 263.4 568.1 296.65 585.1 c 4
 305.2 589.1 305.2 589.1 311.85 590.1 c 5
 316.6 590.1 l 5
 324.2 589.1 336.55 589.1 351.75 572.1 c 4
 364.1 558.1 375.5 533.1 377.4 507.1 c 5
 416.35 507.1 l 5
 423.95 538.1 438.2 566.1 471.45 583.1 c 4
 479.05 587.1 480 587.1 485.7 588.1 c 5
 490.45 588.1 l 5
 498.05 587.1 510.4 587.1 525.6 570.1 c 4
 537.95 556.1 549.35 533.1 551.25 508.1 c 5
 600.65 508.1 l 5
 607.3 538.1 622.5 566.1 654.8 583.1 c 4
 663.35 587.1 663.35 587.1 669.05 588.1 c 5
 674.75 588.1 l 5
 681.4 587.1 694.7 587.1 709.9 570.1 c 4
 722.25 556.1 732.7 533.1 734.6 508.1 c 5
 782.1 508.1 l 5
 788.75 540.1 803.95 570.1 837.2 587.1 c 4
 845.75 591.1 845.75 591.1 852.4 592.1 c 5
 857.15 592.1 l 5
740.3 90.0996 m 5
 809.65 386.1 l 5
 789.7 399.1 777.35 424.1 777.35 450.1 c 4
 777.35 456.1 777.35 462.1 778.3 468.1 c 5
 733.65 468.1 l 5
 726.05 390.1 689.95 373.1 664.3 372.1 c 5
 598.75 90.0996 l 5
 740.3 90.0996 l 5
559.8 90.0996 m 5
 627.25 382.1 l 5
 607.3 395.1 594.95 420.1 594.95 445.1 c 4
 594.95 453.1 594.95 460.1 595.9 468.1 c 5
 550.3 468.1 l 5
 542.7 390.1 506.6 373.1 480 372.1 c 5
 415.4 90.0996 l 5
 559.8 90.0996 l 5
376.45 90.0996 m 5
 443.9 382.1 l 5
 423.95 395.1 411.6 420.1 411.6 445.1 c 6
 411.6 467.1 l 5
 375.5 467.1 l 5
 367.9 392.1 331.8 375.1 306.15 374.1 c 5
 240.6 90.0996 l 5
 376.45 90.0996 l 5
201.65 90.0996 m 5
 250.1 300.1 l 5
 240.6 288.1 230.15 275.1 215.9 261.1 c 4
 181.7 226.1 146.55 215.1 120.9 181.1 c 4
 96.2002 148.1 90.5 125.1 77.2002 90.0996 c 5
 201.65 90.0996 l 5
879.95 508.1 m 5
 879 519.1 874.25 536.1 864.75 547.1 c 4
 860.95 551.1 859.05 552.1 857.15 552.1 c 6
 856.2 552.1 l 6
 855.25 552.1 854.3 552.1 854.3 551.1 c 4
 838.15 543.1 826.75 530.1 821.05 508.1 c 5
 879.95 508.1 l 5
696.6 508.1 m 5
 694.7 518.1 690.9 533.1 682.35 543.1 c 4
 678.55 547.1 676.65 548.1 674.75 548.1 c 6
 673.8 548.1 l 6
 672.85 548.1 671.9 547.1 671.9 547.1 c 6
 656.7 539.1 646.25 527.1 639.6 508.1 c 5
 696.6 508.1 l 5
513.25 507.1 m 5
 511.35 518.1 506.6 533.1 498.05 543.1 c 4
 494.25 547.1 492.35 548.1 490.45 548.1 c 4
 489.5 548.1 488.55 547.1 488.55 547.1 c 6
 472.4 539.1 461.95 527.1 456.25 507.1 c 5
 513.25 507.1 l 5
339.4 507.1 m 5
 337.5 517.1 333.7 535.1 324.2 545.1 c 4
 320.4 549.1 318.5 550.1 316.6 550.1 c 6
 315.65 550.1 l 6
 314.7 550.1 313.75 549.1 313.75 549.1 c 6
 297.6 541.1 287.15 528.1 281.45 507.1 c 5
 339.4 507.1 l 5
337.5 467.1 m 5
 275.75 467.1 l 5
 274.8 461.1 274.8 454.1 274.8 447.1 c 4
 274.8 428.1 288.1 413.1 303.3 413.1 c 4
 322.3 413.1 333.7 433.1 337.5 467.1 c 5
512.3 467.1 m 5
 449.6 467.1 l 5
 449.6 445.1 l 6
 449.6 426.1 462.9 411.1 478.1 411.1 c 4
 497.1 411.1 508.5 432.1 512.3 467.1 c 5
695.65 468.1 m 5
 633.9 468.1 l 5
 632.95 461.1 632.95 453.1 632.95 445.1 c 4
 632.95 426.1 646.25 411.1 661.45 411.1 c 4
 680.45 411.1 691.85 432.1 695.65 468.1 c 5
878.05 468.1 m 5
 816.3 468.1 l 5
 815.35 463.1 815.35 456.1 815.35 450.1 c 4
 815.35 430.1 828.65 416.1 843.85 416.1 c 4
 862.85 416.1 873.3 435.1 878.05 468.1 c 5
EndSplineSet
EndChar

StartChar: amacron
Encoding: 257 257 56
Width: 1000
Flags: HW
HStem: 0 21G<45.5 62.5>
VStem: 24 60<0.855766 394.071>
LayerCount: 2
Fore
SplineSet
107.699 561.8 m 6
 107.699 574.8 119.699 584.8 135.3 584.8 c 6
 582.899 584.8 l 6
 598.5 584.8 610.5 574.8 610.5 561.8 c 6
 610.5 68.7998 l 6
 610.5 55.7998 598.5 45.7998 582.899 45.7998 c 6
 135.3 45.7998 l 6
 119.699 45.7998 107.699 55.7998 107.699 68.7998 c 6
 107.699 561.8 l 6
161.699 90.7998 m 5
 556.5 90.7998 l 5
 556.5 539.8 l 5
 161.699 539.8 l 5
 161.699 90.7998 l 5
EndSplineSet
EndChar

StartChar: Abreve
Encoding: 258 258 57
Width: 1000
Flags: HW
HStem: 26.5 39<314.111 466.973> 41.5 40<551.686 724.5> 58.5 40<453.06 754.178> 108.5 40<308.786 465.32> 135.5 40<41.1994 152.473 429.868 622.619> 145.5 40<39.5246 196.449 462.988 600.619> 243.5 68<108.782 140.312> 353.5 20G<47.5 56.5 192 199.5>
VStem: -0.5 40<176.67 230.943>
LayerCount: 2
Fore
SplineSet
949.9 44.5498 m 5x1380
 940 27.4502 945.4 26.5498 930.101 21.1494 c 5
 929.2 21.1494 l 5
 926.5 19.3496 922.9 17.5498 918.4 17.5498 c 4
 843.7 19.3496 801.4 20.25 726.7 21.1494 c 4x5380
 697 22.0498 681.7 21.1494 652 23.8496 c 4
 607.9 26.5498 584.5 36.4502 549.4 36.4502 c 4x2380
 545.801 36.4502 542.2 36.4502 539.5 35.5498 c 4
 489.101 33.75 448.601 7.64941 399.101 7.64941 c 4
 387.4 7.64941 376.601 8.5498 364 11.25 c 4
 286.601 29.25 268.601 85.9502 202.9 112.95 c 4
 200.2 113.85 197.5 114.75 193 114.75 c 4x8780
 183.101 114.75 163.301 105.75 143.5 105.75 c 6
 139 105.75 l 5
 132.7 105.75 l 5
 117.4 105.75 l 6x0b80
 112.9 105.75 107.5 105.75 101.2 107.55 c 4
 81.4004 111.149 72.4004 122.85 70.6006 124.649 c 4
 60.7002 137.25 54.4004 151.649 54.4004 166.95 c 6
 54.4004 167.85 l 6
 54.4004 184.95 60.7002 196.649 69.7002 206.55 c 4
 85 222.75 102.101 229.95 119.2 234.45 c 5
 103 243.45 91.3008 255.149 76.9004 273.149 c 4
 72.4004 279.45 68.8008 286.649 68.8008 293.85 c 4
 68.8008 298.35 69.7002 302.85 73.3008 307.35 c 5
 82.3008 315.45 92.2002 319.95 103 319.95 c 4
 108.4 319.95 114.7 318.149 120.101 315.45 c 4
 139.9 307.35 135.4 284.85 152.5 271.35 c 4
 157.9 266.85 164.2 264.149 170.5 264.149 c 4
 174.101 264.149 177.7 265.05 181.301 267.75 c 4
 201.101 280.35 197.5 304.649 219.101 313.649 c 4
 222.7 315.45 226.301 316.35 229 316.35 c 4
 239.801 316.35 249.7 309.149 256.9 300.149 c 4
 259.601 295.649 260.5 292.05 260.5 288.45 c 4
 260.5 281.25 256.9 274.05 253.301 265.95 c 4
 247.9 254.25 240.7 250.649 231.7 242.55 c 4
 224.5 236.25 220 229.95 212.801 226.35 c 5
 219.101 222.75 225.4 218.25 231.7 214.649 c 4
 292.9 178.649 309.101 133.649 370.301 120.149 c 4
 379.301 117.45 387.4 117.45 395.5 117.45 c 4
 437.801 117.45 480.101 145.35 535.9 145.35 c 6
 543.101 145.35 l 5
 593.5 143.55 620.5 121.95 661 108.45 c 4
 686.2 99.4502 705.101 85.0498 729.4 82.3496 c 4
 764.5 77.8496 792.4 76.9502 820.301 76.9502 c 4
 839.2 76.9502 859 77.8496 881.5 77.8496 c 4
 893.2 77.8496 905.801 77.8496 919.301 76.9502 c 4
 924.7 76.9502 929.2 75.1494 932.801 70.6494 c 4
 933.7 69.75 934.601 69.75 936.4 67.9502 c 4
 941.801 64.3496 949.9 57.1494 949.9 44.5498 c 5x1380
706.9 57.1494 m 5
 694.301 63.4502 661.9 70.6494 649.301 74.25 c 4
 601.601 91.3496 585.4 107.55 541.301 109.35 c 5
 535.9 109.35 l 6
 482.801 109.35 447.7 81.4502 395.5 81.4502 c 4x5380
 384.7 81.4502 373.9 82.3496 362.2 85.0498 c 4
 290.2 101.25 271.301 149.85 213.7 184.05 c 4
 192.101 196.649 184 202.95 167.801 202.95 c 6
 166 202.95 l 5
 130.9 201.149 112.9 200.25 95.8008 181.35 c 4
 94 179.55 93.1006 177.75 92.2002 175.95 c 6
 92.2002 175.95 91.3008 175.05 91.3008 174.149 c 4
 90.4004 172.35 90.4004 171.45 90.4004 167.85 c 4
 90.4004 159.75 94.9004 152.55 98.5 148.05 c 4
 101.2 144.45 104.801 142.649 107.5 142.649 c 4
 111.101 141.75 116.5 141.75 117.4 141.75 c 6
 132.7 141.75 l 5
 140.801 141.75 l 5
 143.5 141.75 l 6x0b80
 158.801 141.75 173.2 150.75 193 150.75 c 4
 200.2 150.75 208.301 149.85 217.301 146.25 c 4
 286.601 116.55 307.301 60.75 372.101 46.3496 c 4
 382 43.6494 390.101 42.75 399.101 42.75 c 4x8780
 445.9 42.75 476.5 68.8496 537.7 71.5498 c 4
 541.301 71.5498 545.801 72.4502 549.4 72.4502 c 4x2380
 591.7 72.4502 612.4 62.5498 654.7 58.9502 c 4
 667.301 58.0498 697 57.1494 706.9 57.1494 c 5
EndSplineSet
EndChar

StartChar: abreve
Encoding: 259 259 58
Width: 1001
Flags: HW
HStem: 48 40<100 512> 284 40<219.606 390.28>
LayerCount: 2
Fore
SplineSet
125 75 m 5
 537 75 l 5
 526 184 439 271 329 271 c 4
 222 271 136 185 125 75 c 5
329 311 m 4
 469 311 576 193 578 56 c 5
 578 55 l 6
 578 44 570 35 558 35 c 6
 104 35 l 6
 92 35 84 44 84 55 c 6
 84 56 l 5
 86 195 192 311 329 311 c 4
EndSplineSet
EndChar

StartChar: Aogonek
Encoding: 260 260 59
Width: 998
Flags: HW
HStem: 6.09961 48<107.961 173.108 654.108 692.584> 34.0996 52<238.201 568.414> 521.1 23<485.738 520.827> 687.38 27.028<93.4844 123.453> 861.1 38<423.588 466.764> 968.1 35<451.478 556.39>
VStem: 95.0322 62.0758<741.878 772.872> 169.108 40<60.0996 102.497> 200.108 40<171.217 376.068> 211.108 39<168.1 325.706> 365.108 35<823.607 917.32> 423.108 44<861.208 898.903> 432.108 35<278.1 399.182 727.091 779.952> 438.108 40<273.458 551.544> 519.108 30<827.732 899.272> 569.108 40<81.0996 269.959> 572.108 45<311.655 490.1> 596.108 35<834.578 929.884>
LayerCount: 2
Fore
SplineSet
167.866 379.081 m 5x3ea2
 167.866 337.281 l 6x3ea2
 167.866 280.281 175.086 247.981 176.891 184.331 c 5x3e62
 212.991 209.981 249.091 226.131 294.216 250.831 c 6
 306.851 257.481 l 5
 175.086 381.932 l 5
 174.184 381.932 l 6
 172.379 381.932 168.769 380.981 167.866 379.081 c 5x3ea2
352.879 106.431 m 4x7f23
 403.419 106.431 434.104 100.73 464.788 92.1807 c 5
 466.594 164.381 466.594 224.231 466.594 283.131 c 5
 408.834 259.381 369.123 247.981 310.461 216.631 c 4
 239.163 178.631 198.551 161.531 140.791 107.381 c 4
 139.889 106.431 139.889 106.431 139.889 103.581 c 4
 139.889 98.8311 141.693 91.2305 142.597 81.7305 c 5
 225.626 96.9307 311.363 106.431 352.879 106.431 c 4x7f23
355.586 878.78 m 4
 366.416 878.78 372.734 868.33 372.734 856.931 c 4
 372.734 848.38 363.709 842.681 355.586 842.681 c 4
 345.659 842.681 333.023 846.48 333.023 856.931 c 4x3e32
 333.023 869.28 343.854 878.78 355.586 878.78 c 4
419.663 835.08 m 4
 419.663 842.681 420.566 848.38 420.566 854.08 c 4
 420.566 891.13 350.172 901.58 350.172 901.58 c 5
 344.756 901.58 335.731 898.73 326.706 896.83 c 5
 316.778 883.53 312.266 869.28 312.266 851.23 c 4
 312.266 843.63 313.169 835.08 314.974 826.53 c 4
 320.389 797.08 372.734 790.431 372.734 739.13 c 4x3e2a80
 372.734 705.88 349.269 694.48 332.121 676.431 c 5
 351.073 598.53 382.661 522.53 382.661 405.682 c 4
 382.661 366.731 379.051 332.531 378.148 288.831 c 5
 406.126 300.231 434.104 309.731 467.496 323.981 c 5x3e2680
 468.398 399.981 469.301 459.831 472.009 509.231 c 5
 456.666 518.73 l 6
 449.619 522.44 444.28 523.665 439.992 523.665 c 4
 431.666 523.665 427.298 519.054 422.055 519.054 c 4
 421.003 519.054 419.92 519.237 418.761 519.681 c 4
 412.443 519.681 387.173 526.33 387.173 534.88 c 4
 387.173 535.83 388.076 535.83 388.076 536.78 c 4
 389.881 540.58 393.491 541.53 397.101 541.53 c 6
 405.224 541.53 l 6
 410.639 541.53 416.054 542.48 421.469 546.28 c 5
 421.469 548.181 l 6
 421.469 563.38 395.297 577.63 380.856 589.03 c 5
 380.135 590.808 379.778 592.752 379.778 594.728 c 4
 379.778 602.559 385.33 610.847 395.362 610.847 c 4
 401.739 610.847 409.934 607.492 419.663 598.53 c 5
 447.641 576.681 435.006 578.58 446.738 570.03 c 5
 453.057 557.681 464.788 547.23 472.009 541.53 c 5
 474.716 540.58 l 5
 481.034 600.431 491.863 647.931 512.621 698.28 c 5
 497.278 706.83 486.448 710.63 470.203 727.73 c 4
 449.446 748.63 449.446 761.931 436.811 785.681 c 5
 429.591 790.431 419.663 806.58 419.663 835.08 c 4
358.294 929.13 m 5
 387.173 924.38 447.641 903.48 447.641 854.08 c 4
 447.641 848.38 446.738 839.83 446.738 835.08 c 4
 446.738 816.08 455.764 812.28 467.496 806.58 c 5x3e2280
 478.326 825.58 489.156 844.58 489.156 862.63 c 4x3e2240
 489.156 903.48 453.959 944.33 401.613 944.33 c 4
 385.369 944.33 370.929 938.63 358.294 929.13 c 5
62.5859 710.434 m 4
 62.5859 729.983 36.9346 754.245 36.9346 759.574 c 4
 36.9346 768.39 44.6855 775.23 53.249 775.23 c 4
 74.0059 775.23 91.1533 720.13 92.959 717.28 c 5
 93.8613 710.63 96.5684 703.03 99.2764 695.431 c 4
 101.081 692.58 107.399 681.181 107.399 681.181 c 5
 221.113 569.08 l 5
 294.216 676.431 l 5
 298.729 686.88 l 5
 315.876 711.58 341.146 722.03 341.146 739.13 c 4
 341.146 777.13 280.679 765.73 280.679 851.23 c 4
 280.679 879.73 290.606 906.33 311.363 929.13 c 4
 337.536 958.58 365.514 977.581 401.613 977.581 c 4
 478.326 977.581 520.744 915.83 520.744 862.63 c 4xbe2a40
 520.744 826.53 499.084 798.03 484.644 771.431 c 5
 506.304 729.63 541.501 737.23 553.234 709.681 c 5
 556.844 704.931 558.648 696.38 567.673 678.33 c 4
 592.943 624.181 631.751 551.03 652.509 471.231 c 1
 650.703 439.881 633.557 436.081 616.409 430.381 c 5
 508.109 490.231 l 5xbe2280
 500.889 345.831 503.597 251.781 500.889 101.681 c 5
 541.501 70.3311 l 5
 561.356 65.5811 577.601 66.5303 577.601 47.5303 c 4
 577.601 36.1309 569.479 28.5303 559.551 28.5303 c 4
 546.916 28.5303 440.422 57.0303 351.073 57.0303 c 4x7e23
 325.804 57.0303 115.521 38.0303 68.5908 30.4307 c 5
 65.8838 30.4307 l 6
 55.9561 30.4307 47.834 38.0303 47.834 49.4307 c 4
 47.834 70.3311 69.4941 69.3809 107.399 76.0303 c 5
 106.496 83.6309 103.788 92.1807 103.788 103.581 c 4
 103.788 125.432 112.813 133.031 141.693 157.731 c 5xbf63
 140.791 235.631 131.766 267.932 131.766 337.281 c 4
 131.766 347.731 131.766 358.182 132.669 370.531 c 4
 132.016 373.672 131.71 376.69 131.71 379.579 c 4
 131.71 404.654 154.761 419.932 174.184 419.932 c 4
 177.794 419.932 189.526 418.981 194.941 413.281 c 6
 341.146 276.481 l 6xbeaa
 342.048 276.481 342.048 275.531 342.048 275.531 c 5
 342.048 327.781 346.561 364.831 346.561 405.682 c 4xbe26
 346.561 490.231 330.316 545.33 313.169 606.13 c 5
 232.847 516.83 l 6
 230.033 513.872 226.25 512.193 222.504 512.193 c 4
 219.033 512.193 215.595 513.634 212.991 516.83 c 6
 84.8369 665.03 l 6
 75.5146 676.393 68.3271 677.647 62.4023 677.647 c 4
 60.7227 677.647 59.1436 677.547 57.6465 677.547 c 4
 48.4863 677.547 25.3682 696.583 25.3682 704.256 c 4
 25.3682 708.131 30.5244 709.1 32.3867 709.1 c 4
 38.5996 709.1 44.9111 703.323 55.2422 703.323 c 4
 61.1377 703.323 62.5859 704.101 62.5859 710.434 c 4
527.061 627.98 m 5
 518.938 600.431 511.719 566.23 509.913 529.181 c 5
 509.913 525.38 l 5
 610.091 481.682 l 5
 583.016 537.73 557.746 579.53 527.061 627.98 c 5
EndSplineSet
EndChar

StartChar: aogonek
Encoding: 261 261 60
Width: 996
Flags: HW
HStem: 94.1299 39.0001<286 320> 229.13 41<278.328 328.004> 344.13 40<240.007 360.994> 510.13 56<202.671 283.879 325.499 404.692> 684.13 40<195.856 405.887>
VStem: 14 40<480.588 534.872> 15 141<505.13 581.13> 201 86<512.346 561.095> 236 134<170.047 269.75> 321 86<511.346 559.935> 546 40<488.316 535.771>
LayerCount: 2
Fore
SplineSet
377 305 m 6xf820
 388 305 396 296 396 285 c 4
 396 274 388 265 377 265 c 6
 295 265 l 6
 284 265 275 274 275 285 c 4
 275 296 284 305 295 305 c 6
 377 305 l 6xf820
442 452 m 5xf860
 441 433 419 430 400 430 c 6
 397 430 l 6
 380 430 356 435 356 451 c 4
 356 452 357 453 357 453 c 5
 359 475 380 486 402 486 c 4
 422 486 442 474 442 455 c 6
 442 452 l 5xf860
236 453 m 5xf920
 236 456 l 6
 236 475 256 487 276 487 c 6
 277 487 l 6
 298 487 320 476 322 454 c 5
 322 452 l 6
 322 436 298 431 281 431 c 6
 279 431 l 6
 260 431 238 434 236 453 c 5xf920
223 580 m 4
 198 560 193 540 191 502 c 4xfa20
 191 493 185 487 177 484 c 4
 140 472 91 461 89 424 c 5
 89 423 l 5xfc20
 90 415 91 412 96 409 c 5
 109 397 150 387 175 367 c 4
 177 366 179 364 180 362 c 4
 208 317 218 280 253 244 c 4
 282 214 301 194 327 191 c 5
 331 191 l 5
 334 191 l 6
 365 191 385 212 417 244 c 5
 452 281 462 318 490 363 c 4
 491 365 493 366 495 368 c 4
 520 388 561 397 575 409 c 4
 579 413 580 415 581 423 c 5
 581 425 l 5
 579 461 530 473 493 485 c 4
 485 487 480 494 479 503 c 4
 477 540 472 561 447 581 c 4
 414 606 388 602 339 605 c 5
 336 605 l 5
 284 602 257 606 223 580 c 4
329 644 m 4
 332 645 334 645 337 645 c 4
 381 642 425 649 471 612 c 4
 504 586 515 559 518 519 c 5
 556 507 618 487 621 427 c 5
 621 423 l 5
 620 414 621 397 601 379 c 4
 578 359 545 355 522 338 c 5
 492 290 487 259 446 217 c 4
 433 203 420 189 405 177 c 5
 405 172 l 5
 393 33 l 6
 392 22 384 15 373 15 c 6
 303 15 l 6
 292 15 284 22 283 33 c 6
 271 171 l 5
 271 173 l 5
 254 185 239 201 225 216 c 4
 183 259 178 289 148 338 c 5
 125 354 92 359 69 379 c 4
 49 396 50 413 49 423 c 5xfca0
 49 423 49 425 50 426 c 4
 53 486 114 506 152 518 c 5
 155 558 166 586 199 611 c 5
 244 647 286 642 329 644 c 4
355 55 m 5
 364 155 l 5
 353 152 344 150 334 150 c 4
 327 150 320 151 313 153 c 5
 321 54 l 5
 355 55 l 5
EndSplineSet
EndChar

StartChar: lcommaaccent
Encoding: 316 316 61
Width: 603
Flags: HW
HStem: 68.0996 24<30.5996 109.2 133.8 219.6 244.2 335.4 360 449.4 474 575.394> 261.299 23.4<175.2 188.203 285 299.208 401.4 415.245 516.6 528.686> 318.299 24<87.7442 132 159.6 195 218.259 241.8 270 305.4 328.059 358.2 385.8 421.2 444.095 473.4 500.4 536.4 559.845 594.565> 366.899 24<165.395 192.534 276.725 301.97 392.602 418.168 521.4 534.495>
VStem: 131.4 24<287.23 318.299> 195 24<289.334 318.299 342.299 367.594> 241.8 24<286.015 318.299> 305.4 24<288.847 318.299 342.899 366.325> 357.6 24<285.969 318.899> 421.2 24<288.847 318.899 342.899 366.325> 472.8 24<289.013 318.899> 536.4 24<291.88 318.899 342.899 368.75>
LayerCount: 2
Fore
SplineSet
433.36 271.67 m 5
 436.721 271.189 443.44 271.189 451.12 263.029 c 4
 457.36 256.311 463.12 244.311 464.08 231.35 c 5
 480.881 231.35 l 6
 486.16 231.35 490 227.511 490.48 222.229 c 5
 490.48 221.75 l 6
 490.48 216.949 486.16 212.63 480.881 212.63 c 6
 463.12 212.63 l 5
 458.801 176.63 441.04 168.47 428.08 167.989 c 5
 394 30.71 l 5
 464.561 30.71 l 5
 472.24 26.3896 475.12 23.5098 475.12 21.1104 c 4
 475.12 17.2695 468.881 14.3896 464.561 11.5098 c 5
 23.9209 11.5098 l 6
 20.5605 11.5098 17.6797 12.9502 15.7607 15.8301 c 4
 14.8008 17.75 14.3203 19.1895 14.3203 21.1104 c 4
 14.3203 22.5498 14.8008 23.9902 15.7607 25.4297 c 4
 26.3203 46.5498 29.6797 65.2695 46.4805 86.3896 c 4
 63.7607 107.989 78.1602 109.43 95.9209 126.229 c 5
 112.24 142.55 119.921 154.55 134.801 172.79 c 5
 125.681 179.029 119.921 190.55 119.921 202.069 c 4
 119.921 205.43 119.921 208.311 120.4 211.67 c 5
 90.1602 211.67 l 6
 84.8799 211.67 80.5605 215.511 80.5605 220.79 c 6
 80.5605 221.27 l 6
 80.5605 226.069 84.8799 230.87 90.1602 230.87 c 6
 122.32 230.87 l 5
 125.681 246.229 133.36 260.149 150.16 268.311 c 4
 154.48 270.229 154.48 270.229 157.841 270.711 c 5
 160.24 270.711 l 5
 164.08 270.229 170.32 270.229 178 262.069 c 4
 184.24 255.35 190 243.35 190.96 230.87 c 5
 210.641 230.87 l 5
 214.48 245.75 221.681 259.189 238.48 267.35 c 4
 242.32 269.27 242.801 269.27 245.681 269.75 c 5
 248.08 269.75 l 5
 251.92 269.27 258.16 269.27 265.841 261.11 c 4
 272.08 254.39 277.841 243.35 278.801 231.35 c 5
 303.761 231.35 l 5
 307.12 245.75 314.801 259.189 331.12 267.35 c 4
 335.44 269.27 335.44 269.27 338.32 269.75 c 5
 341.2 269.75 l 5
 344.561 269.27 351.28 269.27 358.961 261.11 c 4
 365.2 254.39 370.48 243.35 371.44 231.35 c 5
 395.44 231.35 l 5
 398.801 246.711 406.48 261.11 423.28 269.27 c 4
 427.601 271.189 427.601 271.189 430.961 271.67 c 5
 433.36 271.67 l 5
374.32 30.71 m 5
 409.36 172.79 l 5
 399.28 179.029 393.04 191.029 393.04 203.511 c 4
 393.04 206.39 393.04 209.27 393.521 212.149 c 5
 370.961 212.149 l 5
 367.12 174.711 348.881 166.55 335.92 166.069 c 5
 302.801 30.71 l 5
 374.32 30.71 l 5
283.12 30.71 m 5
 317.2 170.87 l 5
 307.12 177.11 300.881 189.11 300.881 201.11 c 4
 300.881 204.949 300.881 208.311 301.36 212.149 c 5
 278.32 212.149 l 5
 274.48 174.711 256.24 166.55 242.801 166.069 c 5
 210.16 30.71 l 5
 283.12 30.71 l 5
190.48 30.71 m 5
 224.561 170.87 l 5
 214.48 177.11 208.24 189.11 208.24 201.11 c 6
 208.24 211.67 l 5
 190 211.67 l 5
 186.16 175.67 167.921 167.511 154.96 167.029 c 5
 121.841 30.71 l 5
 190.48 30.71 l 5
102.16 30.71 m 5
 126.641 131.511 l 5
 121.841 125.75 116.561 119.511 109.36 112.79 c 4
 92.0801 95.9893 74.3203 90.7109 61.3604 74.3896 c 4
 48.8799 58.5498 46 47.5107 39.2803 30.71 c 5
 102.16 30.71 l 5
444.881 231.35 m 5
 444.4 236.63 442 244.79 437.2 250.069 c 4
 435.28 251.989 434.32 252.47 433.36 252.47 c 6
 432.881 252.47 l 6
 432.4 252.47 431.921 252.47 431.921 251.989 c 4
 423.761 248.149 418 241.91 415.12 231.35 c 5
 444.881 231.35 l 5
352.24 231.35 m 5
 351.28 236.149 349.36 243.35 345.04 248.149 c 4
 343.12 250.069 342.16 250.55 341.2 250.55 c 6
 340.721 250.55 l 6
 340.24 250.55 339.761 250.069 339.761 250.069 c 6
 332.08 246.229 326.801 240.47 323.44 231.35 c 5
 352.24 231.35 l 5
259.601 230.87 m 5
 258.641 236.149 256.24 243.35 251.92 248.149 c 4
 250 250.069 249.04 250.55 248.08 250.55 c 4
 247.601 250.55 247.12 250.069 247.12 250.069 c 6
 238.961 246.229 233.681 240.47 230.801 230.87 c 5
 259.601 230.87 l 5
171.761 230.87 m 5
 170.801 235.67 168.881 244.311 164.08 249.11 c 4
 162.16 251.029 161.2 251.511 160.24 251.511 c 6
 159.761 251.511 l 6
 159.28 251.511 158.801 251.029 158.801 251.029 c 6
 150.641 247.189 145.36 240.949 142.48 230.87 c 5
 171.761 230.87 l 5
170.801 211.67 m 5
 139.601 211.67 l 5
 139.12 208.79 139.12 205.43 139.12 202.069 c 4
 139.12 192.949 145.841 185.75 153.521 185.75 c 4
 163.12 185.75 168.881 195.35 170.801 211.67 c 5
259.12 211.67 m 5
 227.44 211.67 l 5
 227.44 201.11 l 6
 227.44 191.989 234.16 184.79 241.841 184.79 c 4
 251.44 184.79 257.2 194.87 259.12 211.67 c 5
351.761 212.149 m 5
 320.561 212.149 l 5
 320.08 208.79 320.08 204.949 320.08 201.11 c 4
 320.08 191.989 326.801 184.79 334.48 184.79 c 4
 344.08 184.79 349.841 194.87 351.761 212.149 c 5
443.921 212.149 m 5
 412.721 212.149 l 5
 412.24 209.75 412.24 206.39 412.24 203.511 c 4
 412.24 193.91 418.961 187.189 426.641 187.189 c 4
 436.24 187.189 441.521 196.311 443.921 212.149 c 5
EndSplineSet
EndChar

StartChar: Lcaron
Encoding: 317 317 62
Width: 299
Flags: W
HStem: 2.61426 27<42.1992 239.6> 299.014 27<42.1992 239.6>
VStem: 15.1992 27<29.6143 299.014> 239.6 27<29.6143 299.014>
LayerCount: 2
Fore
SplineSet
15.1992 312.215 m 6
 15.1992 320.014 21.1992 326.014 28.999 326.014 c 6
 252.8 326.014 l 6
 260.6 326.014 266.6 320.014 266.6 312.215 c 6
 266.6 16.4141 l 6
 266.6 8.61426 260.6 2.61426 252.8 2.61426 c 6
 28.999 2.61426 l 6
 21.1992 2.61426 15.1992 8.61426 15.1992 16.4141 c 6
 15.1992 312.215 l 6
42.1992 29.6143 m 5
 239.6 29.6143 l 5
 239.6 299.014 l 5
 42.1992 299.014 l 5
 42.1992 29.6143 l 5
EndSplineSet
EndChar

StartChar: lcaron
Encoding: 318 318 63
Width: 1000
Flags: HW
HStem: 26.5 39<314.111 466.973> 41.5 40<551.686 724.5> 58.5 40<453.06 754.178> 108.5 40<308.786 465.32> 135.5 40<41.1994 152.473 429.868 622.619> 145.5 40<39.5246 196.449 462.988 600.619> 243.5 68<108.782 140.312> 353.5 20G<47.5 56.5 192 199.5>
VStem: -0.5 40<176.67 230.943>
LayerCount: 2
Fore
SplineSet
535 45.75 m 5x1380
 529.5 36.25 532.5 35.75 524 32.75 c 5
 523.5 32.75 l 5
 522 31.75 520 30.75 517.5 30.75 c 4
 476 31.75 452.5 32.25 411 32.75 c 4x5380
 394.5 33.25 386 32.75 369.5 34.25 c 4
 345 35.75 332 41.25 312.5 41.25 c 4x2380
 310.5 41.25 308.5 41.25 307 40.75 c 4
 279 39.75 256.5 25.25 229 25.25 c 4
 222.5 25.25 216.5 25.75 209.5 27.25 c 4
 166.5 37.25 156.5 68.75 120 83.75 c 4
 118.5 84.25 117 84.75 114.5 84.75 c 4x8780
 109 84.75 98 79.75 87 79.75 c 6
 84.5 79.75 l 5
 81 79.75 l 5
 72.5 79.75 l 6x0b80
 70 79.75 67 79.75 63.5 80.75 c 4
 52.5 82.75 47.5 89.25 46.5 90.25 c 4
 41 97.25 37.5 105.25 37.5 113.75 c 6
 37.5 114.25 l 6
 37.5 123.75 41 130.25 46 135.75 c 4
 54.5 144.75 64 148.75 73.5 151.25 c 5
 64.5 156.25 58 162.75 50 172.75 c 4
 47.5 176.25 45.5 180.25 45.5 184.25 c 4
 45.5 186.75 46 189.25 48 191.75 c 5
 53 196.25 58.5 198.75 64.5 198.75 c 4
 67.5 198.75 71 197.75 74 196.25 c 4
 85 191.75 82.5 179.25 92 171.75 c 4
 95 169.25 98.5 167.75 102 167.75 c 4
 104 167.75 106 168.25 108 169.75 c 4
 119 176.75 117 190.25 129 195.25 c 4
 131 196.25 133 196.75 134.5 196.75 c 4
 140.5 196.75 146 192.75 150 187.75 c 4
 151.5 185.25 152 183.25 152 181.25 c 4
 152 177.25 150 173.25 148 168.75 c 4
 145 162.25 141 160.25 136 155.75 c 4
 132 152.25 129.5 148.75 125.5 146.75 c 5
 129 144.75 132.5 142.25 136 140.25 c 4
 170 120.25 179 95.25 213 87.75 c 4
 218 86.25 222.5 86.25 227 86.25 c 4
 250.5 86.25 274 101.75 305 101.75 c 6
 309 101.75 l 5
 337 100.75 352 88.75 374.5 81.25 c 4
 388.5 76.25 399 68.25 412.5 66.75 c 4
 432 64.25 447.5 63.75 463 63.75 c 4
 473.5 63.75 484.5 64.25 497 64.25 c 4
 503.5 64.25 510.5 64.25 518 63.75 c 4
 521 63.75 523.5 62.75 525.5 60.25 c 4
 526 59.75 526.5 59.75 527.5 58.75 c 4
 530.5 56.75 535 52.75 535 45.75 c 5x1380
400 52.75 m 5
 393 56.25 375 60.25 368 62.25 c 4
 341.5 71.75 332.5 80.75 308 81.75 c 5
 305 81.75 l 6
 275.5 81.75 256 66.25 227 66.25 c 4x5380
 221 66.25 215 66.75 208.5 68.25 c 4
 168.5 77.25 158 104.25 126 123.25 c 4
 114 130.25 109.5 133.75 100.5 133.75 c 6
 99.5 133.75 l 5
 80 132.75 70 132.25 60.5 121.75 c 4
 59.5 120.75 59 119.75 58.5 118.75 c 6
 58.5 118.75 58 118.25 58 117.75 c 4
 57.5 116.75 57.5 116.25 57.5 114.25 c 4
 57.5 109.75 60 105.75 62 103.25 c 4
 63.5 101.25 65.5 100.25 67 100.25 c 4
 69 99.75 72 99.75 72.5 99.75 c 6
 81 99.75 l 5
 85.5 99.75 l 5
 87 99.75 l 6x0b80
 95.5 99.75 103.5 104.75 114.5 104.75 c 4
 118.5 104.75 123 104.25 128 102.25 c 4
 166.5 85.75 178 54.75 214 46.75 c 4
 219.5 45.25 224 44.75 229 44.75 c 4x8780
 255 44.75 272 59.25 306 60.75 c 4
 308 60.75 310.5 61.25 312.5 61.25 c 4x2380
 336 61.25 347.5 55.75 371 53.75 c 4
 378 53.25 394.5 52.75 400 52.75 c 5
EndSplineSet
EndChar

StartChar: asciicircum
Encoding: 94 94 64
Width: 1000
VWidth: 0
Flags: H
LayerCount: 2
Fore
SplineSet
14.5 117.7 m 29
 569.5 132.7 l 29
 569.5 39.7002 l 29
 2.5 0.700195 l 29
 14.5 117.7 l 29
EndSplineSet
EndChar

StartChar: Cacute
Encoding: 262 262 65
Width: 994
Flags: HW
LayerCount: 2
Fore
SplineSet
877.95 282.325 m 1
 874.757 301.959 872.065 325.55 869.875 353.1 c 128
 867.658 380.65 865.283 402.025 862.75 417.225 c 1
 860.85 433.691 859.9 453.8 859.9 477.55 c 128
 859.9 501.301 858.634 521.567 856.1 538.35 c 128
 853.566 555.134 847.233 571.759 837.1 588.225 c 0
 825.7 607.858 812.241 621.95 796.725 630.5 c 128
 781.209 639.05 758.884 646.809 729.75 653.775 c 0
 704.416 660.108 678.925 664.858 653.275 668.025 c 128
 627.625 671.191 607.358 673.092 592.475 673.725 c 128
 577.592 674.363 553.209 674.997 519.325 675.625 c 128
 485.441 676.269 460.267 676.901 443.8 677.525 c 1
 419.1 677.525 l 2
 396.3 677.525 365.741 676.1 327.425 673.25 c 128
 289.108 670.4 258.55 668.658 235.75 668.025 c 0
 229.416 668.025 221.5 667.233 212 665.65 c 128
 202.5 664.066 194.584 663.275 188.25 663.275 c 0
 174.316 663.275 161.334 667.392 149.3 675.625 c 0
 136.634 684.491 130.3 697.158 130.3 713.625 c 0
 130.3 718.063 130.775 723.447 131.725 729.775 c 128
 132.675 736.108 133.15 741.175 133.15 744.975 c 0
 133.783 753.842 136.158 765.4 140.275 779.65 c 128
 144.392 793.9 146.45 804.191 146.45 810.525 c 2
 146.45 811.475 l 2
 146.45 815.275 146.925 819.075 147.875 822.875 c 128
 148.825 826.675 149.3 828.892 149.3 829.525 c 0
 149.3 832.059 148.35 834.275 146.45 836.175 c 0
 145.816 836.175 142.65 837.125 136.95 839.025 c 128
 131.25 840.925 126.816 841.875 123.65 841.875 c 0
 117.95 841.875 113.833 842.191 111.3 842.825 c 0
 108.134 844.092 100.85 845.991 89.4502 848.525 c 128
 78.0498 851.083 68.2334 854.092 60 857.55 c 128
 51.7666 861.033 43.5332 866.259 35.2998 873.225 c 1
 35.2998 873.225 35.2998 873.225 33.4004 875.6 c 128
 32.1338 877.184 30.8662 878.925 29.5996 880.825 c 128
 28.333 882.725 27.2246 884.941 26.2754 887.475 c 128
 25.3252 890.01 24.8496 892.543 24.8496 895.075 c 0
 24.8496 896.975 24.8496 896.975 24.8496 897.45 c 128
 24.8496 897.925 24.8496 897.925 24.8496 900.775 c 0
 24.8496 907.741 27.3838 915.025 32.4502 922.625 c 0
 33.083 923.286 34.667 925.819 37.2002 930.225 c 1
 50.5 946.061 68.2334 957.144 90.4004 963.475 c 1
 112.566 967.908 126.184 970.125 131.25 970.125 c 0
 143.283 970.125 155 967.275 166.4 961.575 c 0
 183.5 953.342 197.116 944.316 207.25 934.5 c 128
 217.384 924.676 224.667 911.535 229.1 895.075 c 0
 231 889.375 231.95 883.358 231.95 877.025 c 0
 231.95 868.158 229.259 857.233 223.875 844.25 c 128
 218.491 831.267 215.8 822.4 215.8 817.65 c 128
 215.8 810.525 215.8 810.525 215.8 806.25 c 128
 215.8 801.975 215.8 801.975 215.8 801.025 c 128
 215.8 800.392 215.642 799.759 215.325 799.125 c 128
 215.009 798.491 214.85 797.858 214.85 797.225 c 2
 214.85 795.325 l 2
 214.85 792.791 215.8 789.625 217.7 785.825 c 128
 219.6 782.025 224.509 778.066 232.425 773.95 c 128
 240.342 769.834 250.316 767.775 262.35 767.775 c 0
 278.184 767.775 303.991 770.15 339.775 774.9 c 128
 375.559 779.65 405.166 782.025 428.6 782.025 c 2
 429.55 782.025 l 2
 434.616 782.025 441.267 781.866 449.5 781.55 c 128
 457.733 781.233 463.75 781.075 467.55 781.075 c 0
 484.65 781.075 508.084 781.55 537.85 782.5 c 128
 567.616 783.45 589.467 783.925 603.4 783.925 c 0
 650.9 783.925 695.866 780.759 738.3 774.425 c 0
 741.467 773.791 745.9 773.158 751.6 772.525 c 0
 776.934 768.725 796.092 765.4 809.075 762.55 c 128
 822.059 759.7 837.733 753.684 856.1 744.5 c 128
 874.467 735.316 890.616 723.125 904.55 707.925 c 0
 910.25 701.592 915.475 695.416 920.225 689.4 c 128
 924.975 683.373 929.25 676.882 933.05 669.925 c 128
 936.85 662.959 940.017 657.1 942.55 652.35 c 128
 945.084 647.6 947.459 640.791 949.675 631.925 c 128
 951.892 623.059 953.634 616.725 954.9 612.925 c 128
 956.166 609.125 957.592 602 959.175 591.55 c 128
 960.759 581.1 961.709 574.608 962.025 572.075 c 128
 962.342 569.541 963.134 562.1 964.4 549.75 c 128
 965.666 537.4 966.3 530.275 966.3 528.375 c 0
 967.566 519.509 968.2 512.858 968.2 508.425 c 0
 968.2 491.959 964.875 472.166 958.225 449.05 c 128
 951.575 425.934 947.616 407.408 946.35 393.475 c 1
 943.816 380.809 940.967 360.858 937.8 333.625 c 0
 937.8 329.825 937.009 322.384 935.425 311.3 c 128
 933.842 300.217 933.05 291.825 933.05 286.125 c 0
 933.05 284.225 933.366 282.642 934 281.375 c 0
 934.634 273.142 935.584 256.834 936.85 232.45 c 128
 938.116 208.066 939.225 191.125 940.175 181.625 c 128
 941.125 172.125 942.709 158.35 944.925 140.3 c 128
 947.142 122.25 950.309 105.941 954.425 91.375 c 128
 958.541 76.8086 963.45 61.6084 969.15 45.7754 c 1
 969.15 43.875 l 2
 969.15 32.4746 965.666 26.1416 958.7 24.875 c 1
 954.9 24.875 l 2
 945.4 24.875 939.384 29.9414 936.85 40.0752 c 1
 928.616 63.5088 921.334 87.417 915 111.8 c 128
 908.666 136.184 901.541 168.009 893.625 207.275 c 128
 885.709 246.541 880.483 271.559 877.95 282.325 c 1
62.8496 899.825 m 0
 67.917 896.025 72.8252 893.175 77.5752 891.275 c 128
 82.3252 889.375 89.4502 887.475 98.9502 885.575 c 128
 108.45 883.675 116.05 881.775 121.75 879.875 c 0
 122.384 879.241 123.017 878.925 123.65 878.925 c 128
 124.283 878.925 126.658 879.241 130.775 879.875 c 128
 134.892 880.509 138.217 880.825 140.75 880.825 c 2
 146.45 880.825 l 1
 156.584 879.559 162.917 876.075 165.45 870.375 c 1
 174.316 862.775 180.017 852.959 182.55 840.925 c 1
 183.816 845.364 186.033 851.698 189.2 859.925 c 128
 192.366 868.158 193.95 873.858 193.95 877.025 c 128
 193.95 880.191 193.634 882.725 193 884.625 c 0
 189.834 894.125 185.084 902.041 178.75 908.375 c 128
 172.416 914.715 162.916 921.049 150.25 927.375 c 0
 143.916 930.541 137.583 932.125 131.25 932.125 c 0
 127.45 932.125 117 930.225 99.9004 926.425 c 1
 85.9668 922.625 74.8838 915.975 66.6504 906.475 c 0
 65.3838 905.195 64.4336 903.928 63.7998 902.675 c 2
 63.7998 902.675 63.7998 902.675 63.3252 901.725 c 128
 63.0088 901.092 62.8496 900.459 62.8496 899.825 c 0
179.7 778.225 m 1
 174.634 761.759 171.783 750.041 171.15 743.075 c 0
 171.15 739.275 170.675 733.733 169.725 726.45 c 128
 168.775 719.166 168.3 714.892 168.3 713.625 c 0
 168.3 710.438 168.934 708.221 170.2 706.975 c 0
 174 703.175 180.017 701.275 188.25 701.275 c 0
 191.416 701.275 198.541 702.066 209.625 703.65 c 128
 220.709 705.233 229.1 706.025 234.8 706.025 c 0
 257.6 706.025 288.158 707.608 326.475 710.775 c 128
 364.791 713.941 395.666 715.525 419.1 715.525 c 2
 444.75 715.525 l 1
 459.316 714.892 484.175 714.259 519.325 713.625 c 128
 554.475 712.991 579.65 712.358 594.85 711.725 c 128
 610.05 711.092 631.108 708.875 658.025 705.075 c 128
 684.941 701.275 711.7 696.209 738.3 689.875 c 0
 771.233 682.275 797.834 672.775 818.1 661.375 c 128
 838.366 649.975 855.467 631.925 869.4 607.225 c 1
 881.44 587.592 889.198 568.275 892.675 549.275 c 128
 896.158 530.275 897.9 508.425 897.9 483.725 c 128
 897.9 459.025 898.85 438.759 900.75 422.925 c 0
 902.65 408.991 904.233 391.258 905.5 369.725 c 1
 906.134 375.425 907.084 384.608 908.35 397.275 c 0
 909.616 411.843 913.575 431.158 920.225 455.225 c 128
 926.875 479.291 930.2 497.025 930.2 508.425 c 0
 930.2 514.759 929.884 519.825 929.25 523.625 c 0
 929.25 527.425 928.616 534.866 927.35 545.95 c 128
 926.084 557.033 925.134 564.158 924.5 567.325 c 128
 923.866 570.491 922.916 576.509 921.65 585.375 c 128
 920.384 594.241 919.275 600.416 918.325 603.9 c 128
 917.375 607.386 915.95 612.77 914.05 620.05 c 128
 912.15 627.334 910.092 632.875 907.875 636.675 c 128
 905.658 640.475 903.125 645.225 900.275 650.925 c 128
 897.425 656.625 894.1 661.85 890.3 666.6 c 128
 886.5 671.35 882.066 676.259 877 681.325 c 0
 860.533 699.691 843.434 711.884 825.7 717.9 c 128
 807.967 723.916 781.366 729.459 745.9 734.525 c 0
 740.2 735.163 735.767 735.797 732.6 736.425 c 0
 691.432 742.759 648.365 745.925 603.4 745.925 c 0
 590.1 745.925 568.725 745.45 539.275 744.5 c 128
 509.825 743.55 485.916 743.075 467.55 743.075 c 0
 463.75 743.075 457.733 743.233 449.5 743.55 c 128
 441.267 743.866 434.616 744.025 429.55 744.025 c 2
 428.6 744.025 l 2
 407.066 744.025 378.407 741.65 342.625 736.9 c 128
 306.842 732.15 280.083 729.775 262.35 729.775 c 2
 249.05 729.775 l 2
 220.55 729.775 199.017 742.125 184.45 766.825 c 0
 181.916 771.892 180.334 775.691 179.7 778.225 c 1
EndSplineSet
EndChar

StartChar: cacute
Encoding: 263 263 66
Width: 1001
Flags: HW
LayerCount: 2
Fore
SplineSet
408.5 54.25 m 5
 409.5 54.25 l 6
 416.167 54.25 421.833 52.0332 426.5 47.5996 c 132
 431.167 43.166 433.833 37.4668 434.5 30.5 c 4
 434.5 24.166 432 18.4668 427 13.3994 c 132
 422 8.33301 416.167 5.4834 409.5 4.84961 c 5
 228.5 4.84961 l 6
 221.167 4.84961 215 7.22461 210 11.9746 c 132
 205 16.7246 202.5 22.2666 202.5 28.5996 c 4
 202.5 35.5664 204.833 41.2666 209.5 45.7002 c 132
 214.167 50.1328 220.167 52.3496 227.5 52.3496 c 6
 290.5 53.2998 l 5
 289.5 189.149 l 5
 286.833 199.283 284.167 206.884 281.5 211.95 c 4
 268.833 233.483 251.5 250.583 229.5 263.25 c 4
 206.167 275.917 184.167 283.834 163.5 287 c 5
 162.5 257.55 l 6
 162.5 252.483 160.667 248.05 157 244.25 c 132
 153.333 240.45 148.833 238.55 143.5 238.55 c 6
 142.5 238.55 l 6
 137.167 238.55 132.667 240.45 129 244.25 c 132
 125.333 248.05 123.5 252.483 123.5 257.55 c 6
 123.5 288.899 l 5
 108.167 288.899 92.5 290.642 76.5 294.125 c 132
 60.5 297.608 52.5 301.566 52.5 306 c 4
 52.5 313.6 76.167 320.25 123.5 325.95 c 5
 124.5 388.649 l 5
 108.5 389.283 92.667 391.341 77 394.825 c 132
 61.333 398.309 53.5 401.95 53.5 405.75 c 4
 53.5 414.616 77.167 421.267 124.5 425.7 c 5
 124.5 460.85 l 6
 124.5 465.916 126.5 470.35 130.5 474.149 c 132
 134.5 477.95 139.167 479.85 144.5 479.85 c 6
 145.5 479.85 l 6
 150.167 479.85 154.5 477.316 158.5 472.25 c 132
 162.5 467.184 164.5 463.384 164.5 460.85 c 6
 164.5 425.7 l 5
 191.833 422.533 220.167 412.716 249.5 396.25 c 5
 265.5 388.017 279.167 378.2 290.5 366.8 c 5
 291.5 818.05 l 6
 291.5 837.684 289.833 849.083 286.5 852.25 c 5
 275.167 869.983 265.667 882.649 258 890.25 c 132
 250.333 897.85 240.5 902.283 228.5 903.55 c 4
 226.5 904.184 223.833 904.5 220.5 904.5 c 4
 205.833 904.5 189.5 901.017 171.5 894.05 c 5
 178.5 880.75 l 6
 180.5 878.216 181.5 875.05 181.5 871.25 c 4
 181.5 863.649 177.833 858.267 170.5 855.1 c 5
 167.833 853.2 164.833 852.25 161.5 852.25 c 4
 153.5 852.25 147.5 855.733 143.5 862.7 c 6
 133.5 880.75 l 5
 121.5 876.95 l 5
 103.5 869.35 93.167 865.55 90.5 865.55 c 4
 86.5 865.55 84.167 867.45 83.5 871.25 c 4
 82.833 871.884 82.5 873.149 82.5 875.05 c 4
 82.5 880.75 85.333 886.767 91 893.1 c 132
 96.667 899.434 102.833 903.55 109.5 905.45 c 5
 116.5 912.1 l 5
 108.5 927.3 l 6
 106.5 931.1 105.5 933.95 105.5 935.85 c 4
 105.5 940.283 108.833 944.399 115.5 948.2 c 5
 122.167 950.733 127.5 952 131.5 952 c 4
 136.167 952 140.167 950.1 143.5 946.3 c 5
 150.5 933 l 5
 174.5 945.666 197.833 952 220.5 952 c 4
 227.167 952 232.167 951.684 235.5 951.05 c 4
 251.5 949.149 266 943.608 279 934.425 c 132
 292 925.241 301.333 917.009 307 909.725 c 132
 312.667 902.441 320.167 891.517 329.5 876.95 c 4
 337.5 864.282 341.5 844.966 341.5 819 c 6
 341.5 818.05 l 5
 340.5 363 l 5
 349.833 373.767 364.5 384.85 384.5 396.25 c 4
 413.834 412.718 442.167 422.534 469.5 425.7 c 5
 470.5 464.649 l 6
 470.5 469.716 472.333 474.149 476 477.95 c 132
 479.667 481.75 484.167 483.649 489.5 483.649 c 6
 490.5 483.649 l 6
 495.167 483.649 499.5 481.116 503.5 476.05 c 132
 507.5 470.983 509.5 467.184 509.5 464.649 c 6
 509.5 425.7 l 5
 556.167 421.266 579.5 414.932 579.5 406.7 c 4
 579.5 402.899 571.833 399.1 556.5 395.3 c 132
 541.167 391.5 525.5 389.283 509.5 388.649 c 5
 508.5 325.95 l 5
 555.833 320.25 579.5 313.6 579.5 306 c 4
 579.5 302.2 571.667 298.399 556 294.6 c 132
 540.333 290.8 524.5 288.899 508.5 288.899 c 5
 508.5 261.35 l 5
 507.167 248.684 500.5 242.35 488.5 242.35 c 6
 487.5 242.35 l 6
 482.167 242.35 477.667 244.25 474 248.05 c 132
 470.333 251.85 468.5 256.283 468.5 261.35 c 6
 468.5 287 l 5
 447.167 283.833 425.5 275.916 403.5 263.25 c 132
 381.5 250.583 364.167 233.483 351.5 211.95 c 4
 348.167 206.25 346.5 180.6 346.5 135 c 6
 346.5 89.3994 l 6
 346.5 73.5664 346.167 61.5332 345.5 53.2998 c 5
 408.5 54.25 l 5
163.5 325 m 5
 190.833 321.833 219.167 312.017 248.5 295.55 c 5
 264.5 287.316 278.167 277.5 289.5 266.1 c 5
 289.5 294.6 l 5
 286.167 302.2 283.5 308.216 281.5 312.649 c 4
 270.166 333.55 252.833 350.649 229.5 363.95 c 5
 204.167 376.616 182.5 384.216 164.5 386.75 c 5
 163.5 325 l 5
469.5 386.75 m 5
 451.5 384.216 429.833 376.616 404.5 363.95 c 5
 381.833 350.649 364.167 333.55 351.5 312.649 c 5
 348.167 303.783 344.167 296.816 339.5 291.75 c 5
 339.5 262.3 l 5
 351.5 276.233 366.167 287.316 383.5 295.55 c 5
 412.834 312.018 441.167 321.833 468.5 325 c 5
 469.5 386.75 l 5
EndSplineSet
EndChar

StartChar: Ccircumflex
Encoding: 264 264 67
Width: 995
Flags: HW
LayerCount: 2
Fore
SplineSet
940.1 273 m 5
 854.6 273 l 5
 854.6 75 l 5
 939.15 75 l 5
 940.1 273 l 5
824.2 28 m 5
 629.134 29.333 506.9 30 457.5 30 c 4
 406.2 30 365.983 29.667 336.85 29 c 4
 315.95 29 294.416 27.667 272.25 25 c 5
 260.85 24.333 245.967 22.333 227.6 19 c 132
 209.233 15.667 194.35 13.667 182.95 13 c 4
 179.15 13 171.866 12.5 161.1 11.5 c 132
 150.333 10.5 142.1 10 136.4 10 c 4
 126.267 10 118.35 10.333 112.65 11 c 4
 111.384 11 108.375 11.5 103.625 12.5 c 132
 98.875 13.5 96.0254 14 95.0752 14 c 132
 94.125 14 91.5918 14.333 87.4746 15 c 132
 83.3584 15.667 80.667 16.167 79.4004 16.5 c 132
 78.1338 16.833 75.7588 17.5 72.2754 18.5 c 132
 68.792 19.5 66.2588 20.333 64.6748 21 c 132
 63.0918 21.667 60.7168 22.5 57.5498 23.5 c 132
 54.3838 24.5 51.8496 25.667 49.9502 27 c 132
 48.0498 28.333 45.6748 29.667 42.8252 31 c 132
 39.9746 32.333 37.2832 34 34.75 36 c 4
 28.417 41.333 25.25 48.667 25.25 58 c 4
 25.25 63.333 27.1504 66.667 30.9502 68 c 4
 38.5498 69.333 43.2998 70 45.2002 70 c 4
 54.7002 70 67.3662 67.167 83.2002 61.5 c 132
 99.0332 55.833 112.017 52.667 122.15 52 c 4
 126.584 52 132.283 51.667 139.25 51 c 132
 146.217 50.333 151.283 50 154.45 50 c 4
 167.75 50 180.1 53 191.5 59 c 4
 193.4 59.667 194.35 61 194.35 63 c 4
 194.35 68.333 188.65 74.333 177.25 81 c 4
 173.45 83.667 169.809 85.333 166.325 86 c 132
 162.842 86.667 158.566 87.167 153.5 87.5 c 132
 148.434 87.833 144.316 88.333 141.15 89 c 132
 137.983 89.667 133.233 90 126.9 90 c 6
 124.05 90 l 6
 113.917 90 106 92.667 100.3 98 c 5
 97.1338 102.667 95.5498 107.333 95.5498 112 c 4
 95.5498 120.667 98.4004 126 104.1 128 c 4
 111.066 130.667 117.717 132 124.05 132 c 4
 127.85 132 142.416 129 167.75 123 c 4
 181.684 119.667 198.783 114.5 219.05 107.5 c 132
 239.316 100.5 255.783 95.333 268.45 92 c 4
 279.217 89.333 289.666 88 299.8 88 c 6
 311.2 88 l 5
 318.166 88.667 326.875 90.5 337.325 93.5 c 132
 347.775 96.5 356.483 98.333 363.45 99 c 4
 381.184 101 414.116 103 462.25 105 c 5
 824.2 105 l 5
 824.2 302 l 5
 970.5 302 l 5
 970.5 28 l 5
 824.2 28 l 5
EndSplineSet
EndChar

StartChar: Ldot
Encoding: 319 319 68
Width: 1001
Flags: W
HStem: 48 40<100 512> 284 40<219.606 390.28>
LayerCount: 2
Fore
SplineSet
125 75 m 5
 537 75 l 5
 526 184 439 271 329 271 c 4
 222 271 136 185 125 75 c 5
329 311 m 4
 469 311 576 193 578 56 c 5
 578 55 l 6
 578 44 570 35 558 35 c 6
 104 35 l 6
 92 35 84 44 84 55 c 6
 84 56 l 5
 86 195 192 311 329 311 c 4
EndSplineSet
EndChar

StartChar: ldot
Encoding: 320 320 69
Width: 998
Flags: HW
HStem: 6.09961 48<107.961 173.108 654.108 692.584> 34.0996 52<238.201 568.414> 521.1 23<485.738 520.827> 687.38 27.028<93.4844 123.453> 861.1 38<423.588 466.764> 968.1 35<451.478 556.39>
VStem: 95.0322 62.0758<741.878 772.872> 169.108 40<60.0996 102.497> 200.108 40<171.217 376.068> 211.108 39<168.1 325.706> 365.108 35<823.607 917.32> 423.108 44<861.208 898.903> 432.108 35<278.1 399.182 727.091 779.952> 438.108 40<273.458 551.544> 519.108 30<827.732 899.272> 569.108 40<81.0996 269.959> 572.108 45<311.655 490.1> 596.108 35<834.578 929.884>
LayerCount: 2
Fore
SplineSet
81.541 188.941 m 5x3ea2
 81.541 168.041 l 6x3ea2
 81.541 139.541 85.1514 123.392 86.0537 91.5664 c 5x3e62
 104.104 104.392 122.153 112.467 144.716 124.816 c 6
 151.033 128.142 l 5
 85.1514 190.367 l 5
 84.7002 190.367 l 6
 83.7979 190.367 81.9922 189.892 81.541 188.941 c 5x3ea2
174.048 52.6162 m 4x7f23
 199.317 52.6162 214.66 49.7656 230.002 45.4912 c 5
 230.905 81.5918 230.905 111.517 230.905 140.967 c 5
 202.025 129.092 182.17 123.392 152.839 107.717 c 4
 117.189 88.7168 96.8838 80.166 68.0039 53.0918 c 4
 67.5527 52.6162 67.5527 52.6162 67.5527 51.1914 c 4
 67.5527 48.8164 68.4541 45.0156 68.9062 40.2656 c 5
 110.421 47.8662 153.289 52.6162 174.048 52.6162 c 4x7f23
175.401 438.791 m 4
 180.816 438.791 183.975 433.565 183.975 427.866 c 4
 183.975 423.591 179.463 420.741 175.401 420.741 c 4
 170.438 420.741 164.119 422.641 164.119 427.866 c 4x3e32
 164.119 434.041 169.535 438.791 175.401 438.791 c 4
207.439 416.94 m 4
 207.439 420.741 207.891 423.591 207.891 426.44 c 4
 207.891 444.966 172.694 450.19 172.694 450.19 c 5
 169.986 450.19 165.474 448.766 160.961 447.815 c 5
 155.997 441.166 153.741 434.041 153.741 425.016 c 4
 153.741 421.216 154.192 416.94 155.095 412.666 c 4
 157.803 397.94 183.975 394.616 183.975 368.966 c 4x3e2a80
 183.975 352.341 172.242 346.641 163.668 337.616 c 5
 173.145 298.666 188.938 260.666 188.938 202.242 c 4
 188.938 182.767 187.134 165.666 186.682 143.816 c 5
 200.671 149.517 214.66 154.267 231.355 161.392 c 5x3e2680
 231.807 199.392 232.259 229.316 233.612 254.017 c 5
 225.941 258.766 l 6
 222.418 260.621 219.748 261.233 217.604 261.233 c 4
 213.441 261.233 211.257 258.928 208.636 258.928 c 4
 208.109 258.928 207.568 259.02 206.988 259.241 c 4
 203.829 259.241 191.194 262.565 191.194 266.841 c 4
 191.194 267.315 191.646 267.315 191.646 267.791 c 4
 192.549 269.69 194.354 270.166 196.158 270.166 c 6
 200.22 270.166 l 6
 202.928 270.166 205.635 270.641 208.343 272.541 c 5
 208.343 273.491 l 6
 208.343 281.091 195.257 288.216 188.036 293.916 c 5
 187.676 294.805 187.497 295.777 187.497 296.765 c 4
 187.497 300.681 190.273 304.824 195.289 304.824 c 4
 198.478 304.824 202.575 303.146 207.439 298.666 c 5
 221.429 287.741 215.111 288.69 220.977 284.416 c 5
 224.137 278.241 230.002 273.016 233.612 270.166 c 5
 234.966 269.69 l 5
 238.125 299.616 243.539 323.366 253.918 348.541 c 5
 246.247 352.815 240.832 354.716 232.709 363.266 c 4
 222.331 373.716 222.331 380.366 216.014 392.241 c 5
 212.403 394.616 207.439 402.69 207.439 416.94 c 4
176.755 463.966 m 5
 191.194 461.591 221.429 451.141 221.429 426.44 c 4
 221.429 423.591 220.977 419.315 220.977 416.94 c 4
 220.977 407.44 225.49 405.541 231.355 402.69 c 5x3e2280
 236.771 412.19 242.186 421.69 242.186 430.716 c 4x3e2240
 242.186 451.141 224.588 471.565 198.414 471.565 c 4
 190.293 471.565 183.072 468.716 176.755 463.966 c 5
28.9014 354.618 m 4
 28.9014 364.393 16.0752 376.523 16.0752 379.188 c 4
 16.0752 383.596 19.9512 387.016 24.2324 387.016 c 4
 34.6113 387.016 43.1846 359.466 44.0879 358.041 c 5
 44.5391 354.716 45.8926 350.916 47.2461 347.116 c 4
 48.1484 345.69 51.3076 339.991 51.3076 339.991 c 5
 108.164 283.94 l 5
 144.716 337.616 l 5
 146.973 342.841 l 5
 155.546 355.19 168.181 360.416 168.181 368.966 c 4
 168.181 387.966 137.947 382.266 137.947 425.016 c 4
 137.947 439.266 142.911 452.565 153.289 463.966 c 4
 166.376 478.69 180.365 488.191 198.414 488.191 c 4
 236.771 488.191 257.98 457.315 257.98 430.716 c 4xbe2a40
 257.98 412.666 247.15 398.416 239.93 385.116 c 5
 250.76 364.216 268.358 368.016 274.225 354.241 c 5
 276.03 351.866 276.932 347.591 281.444 338.565 c 4
 294.079 311.491 313.483 274.916 323.862 235.017 c 5
 322.959 219.342 314.387 217.441 305.812 214.592 c 5
 251.662 244.517 l 5xbe2280
 248.053 172.316 249.406 125.291 248.053 50.2412 c 5
 268.358 34.5664 l 5
 278.286 32.1914 286.408 32.666 286.408 23.166 c 4
 286.408 17.4668 282.348 13.666 277.384 13.666 c 4
 271.066 13.666 217.819 27.916 173.145 27.916 c 4x7e23
 160.51 27.916 55.3682 18.416 31.9033 14.6162 c 5
 30.5498 14.6162 l 6
 25.5859 14.6162 21.5254 18.416 21.5254 24.1162 c 4
 21.5254 34.5664 32.3555 34.0918 51.3076 37.416 c 5
 50.8564 41.2168 49.502 45.4912 49.502 51.1914 c 4
 49.502 62.1172 54.0146 65.916 68.4541 78.2666 c 5xbf63
 68.0039 117.217 63.4912 133.367 63.4912 168.041 c 4
 63.4912 173.267 63.4912 178.492 63.9424 184.666 c 4
 63.6162 186.237 63.4629 187.746 63.4629 189.19 c 4
 63.4629 201.728 74.9883 209.367 84.7002 209.367 c 4
 86.5049 209.367 92.3711 208.892 95.0781 206.041 c 6
 168.181 137.642 l 6xbeaa
 168.632 137.642 168.632 137.166 168.632 137.166 c 5
 168.632 163.291 170.889 181.816 170.889 202.242 c 4xbe26
 170.889 244.517 162.766 272.065 154.192 302.466 c 5
 114.031 257.815 l 6
 112.624 256.337 110.733 255.497 108.86 255.497 c 4
 107.124 255.497 105.405 256.218 104.104 257.815 c 6
 40.0264 331.916 l 6
 35.3652 337.598 31.7715 338.225 28.8096 338.225 c 4
 27.9697 338.225 27.1797 338.175 26.4316 338.175 c 4
 21.8516 338.175 10.292 347.692 10.292 351.529 c 4
 10.292 353.467 12.8701 353.951 13.8018 353.951 c 4
 16.9082 353.951 20.0635 351.062 25.2295 351.062 c 4
 28.1768 351.062 28.9014 351.451 28.9014 354.618 c 4
261.139 313.391 m 5
 257.077 299.616 253.468 282.516 252.564 263.991 c 5
 252.564 262.091 l 5
 302.653 240.242 l 5
 289.116 268.266 276.48 289.166 261.139 313.391 c 5
EndSplineSet
EndChar

StartChar: Lslash
Encoding: 321 321 70
Width: 996
Flags: W
HStem: 94.1299 39.0001<286 320> 229.13 41<278.328 328.004> 344.13 40<240.007 360.994> 510.13 56<202.671 283.879 325.499 404.692> 684.13 40<195.856 405.887>
VStem: 14 40<480.588 534.872> 15 141<505.13 581.13> 201 86<512.346 561.095> 236 134<170.047 269.75> 321 86<511.346 559.935> 546 40<488.316 535.771>
LayerCount: 2
Fore
SplineSet
377 305 m 6xf820
 388 305 396 296 396 285 c 4
 396 274 388 265 377 265 c 6
 295 265 l 6
 284 265 275 274 275 285 c 4
 275 296 284 305 295 305 c 6
 377 305 l 6xf820
442 452 m 5xf860
 441 433 419 430 400 430 c 6
 397 430 l 6
 380 430 356 435 356 451 c 4
 356 452 357 453 357 453 c 5
 359 475 380 486 402 486 c 4
 422 486 442 474 442 455 c 6
 442 452 l 5xf860
236 453 m 5xf920
 236 456 l 6
 236 475 256 487 276 487 c 6
 277 487 l 6
 298 487 320 476 322 454 c 5
 322 452 l 6
 322 436 298 431 281 431 c 6
 279 431 l 6
 260 431 238 434 236 453 c 5xf920
223 580 m 4
 198 560 193 540 191 502 c 4xfa20
 191 493 185 487 177 484 c 4
 140 472 91 461 89 424 c 5
 89 423 l 5xfc20
 90 415 91 412 96 409 c 5
 109 397 150 387 175 367 c 4
 177 366 179 364 180 362 c 4
 208 317 218 280 253 244 c 4
 282 214 301 194 327 191 c 5
 331 191 l 5
 334 191 l 6
 365 191 385 212 417 244 c 5
 452 281 462 318 490 363 c 4
 491 365 493 366 495 368 c 4
 520 388 561 397 575 409 c 4
 579 413 580 415 581 423 c 5
 581 425 l 5
 579 461 530 473 493 485 c 4
 485 487 480 494 479 503 c 4
 477 540 472 561 447 581 c 4
 414 606 388 602 339 605 c 5
 336 605 l 5
 284 602 257 606 223 580 c 4
329 644 m 4
 332 645 334 645 337 645 c 4
 381 642 425 649 471 612 c 4
 504 586 515 559 518 519 c 5
 556 507 618 487 621 427 c 5
 621 423 l 5
 620 414 621 397 601 379 c 4
 578 359 545 355 522 338 c 5
 492 290 487 259 446 217 c 4
 433 203 420 189 405 177 c 5
 405 172 l 5
 393 33 l 6
 392 22 384 15 373 15 c 6
 303 15 l 6
 292 15 284 22 283 33 c 6
 271 171 l 5
 271 173 l 5
 254 185 239 201 225 216 c 4
 183 259 178 289 148 338 c 5
 125 354 92 359 69 379 c 4
 49 396 50 413 49 423 c 5xfca0
 49 423 49 425 50 426 c 4
 53 486 114 506 152 518 c 5
 155 558 166 586 199 611 c 5
 244 647 286 642 329 644 c 4
355 55 m 5
 364 155 l 5
 353 152 344 150 334 150 c 4
 327 150 320 151 313 153 c 5
 321 54 l 5
 355 55 l 5
EndSplineSet
EndChar

StartChar: lslash
Encoding: 322 322 71
Width: 994
Flags: HW
LayerCount: 2
Fore
SplineSet
877.95 282.325 m 1
 874.757 301.959 872.065 325.55 869.875 353.1 c 128
 867.658 380.65 865.283 402.025 862.75 417.225 c 1
 860.85 433.691 859.9 453.8 859.9 477.55 c 128
 859.9 501.301 858.634 521.567 856.1 538.35 c 128
 853.566 555.134 847.233 571.759 837.1 588.225 c 0
 825.7 607.858 812.241 621.95 796.725 630.5 c 128
 781.209 639.05 758.884 646.809 729.75 653.775 c 0
 704.416 660.108 678.925 664.858 653.275 668.025 c 128
 627.625 671.191 607.358 673.092 592.475 673.725 c 128
 577.592 674.363 553.209 674.997 519.325 675.625 c 128
 485.441 676.269 460.267 676.901 443.8 677.525 c 1
 419.1 677.525 l 2
 396.3 677.525 365.741 676.1 327.425 673.25 c 128
 289.108 670.4 258.55 668.658 235.75 668.025 c 0
 229.416 668.025 221.5 667.233 212 665.65 c 128
 202.5 664.066 194.584 663.275 188.25 663.275 c 0
 174.316 663.275 161.334 667.392 149.3 675.625 c 0
 136.634 684.491 130.3 697.158 130.3 713.625 c 0
 130.3 718.063 130.775 723.447 131.725 729.775 c 128
 132.675 736.108 133.15 741.175 133.15 744.975 c 0
 133.783 753.842 136.158 765.4 140.275 779.65 c 128
 144.392 793.9 146.45 804.191 146.45 810.525 c 2
 146.45 811.475 l 2
 146.45 815.275 146.925 819.075 147.875 822.875 c 128
 148.825 826.675 149.3 828.892 149.3 829.525 c 0
 149.3 832.059 148.35 834.275 146.45 836.175 c 0
 145.816 836.175 142.65 837.125 136.95 839.025 c 128
 131.25 840.925 126.816 841.875 123.65 841.875 c 0
 117.95 841.875 113.833 842.191 111.3 842.825 c 0
 108.134 844.092 100.85 845.991 89.4502 848.525 c 128
 78.0498 851.083 68.2334 854.092 60 857.55 c 128
 51.7666 861.033 43.5332 866.259 35.2998 873.225 c 1
 35.2998 873.225 35.2998 873.225 33.4004 875.6 c 128
 32.1338 877.184 30.8662 878.925 29.5996 880.825 c 128
 28.333 882.725 27.2246 884.941 26.2754 887.475 c 128
 25.3252 890.01 24.8496 892.543 24.8496 895.075 c 0
 24.8496 896.975 24.8496 896.975 24.8496 897.45 c 128
 24.8496 897.925 24.8496 897.925 24.8496 900.775 c 0
 24.8496 907.741 27.3838 915.025 32.4502 922.625 c 0
 33.083 923.286 34.667 925.819 37.2002 930.225 c 1
 50.5 946.061 68.2334 957.144 90.4004 963.475 c 1
 112.566 967.908 126.184 970.125 131.25 970.125 c 0
 143.283 970.125 155 967.275 166.4 961.575 c 0
 183.5 953.342 197.116 944.316 207.25 934.5 c 128
 217.384 924.676 224.667 911.535 229.1 895.075 c 0
 231 889.375 231.95 883.358 231.95 877.025 c 0
 231.95 868.158 229.259 857.233 223.875 844.25 c 128
 218.491 831.267 215.8 822.4 215.8 817.65 c 128
 215.8 810.525 215.8 810.525 215.8 806.25 c 128
 215.8 801.975 215.8 801.975 215.8 801.025 c 128
 215.8 800.392 215.642 799.759 215.325 799.125 c 128
 215.009 798.491 214.85 797.858 214.85 797.225 c 2
 214.85 795.325 l 2
 214.85 792.791 215.8 789.625 217.7 785.825 c 128
 219.6 782.025 224.509 778.066 232.425 773.95 c 128
 240.342 769.834 250.316 767.775 262.35 767.775 c 0
 278.184 767.775 303.991 770.15 339.775 774.9 c 128
 375.559 779.65 405.166 782.025 428.6 782.025 c 2
 429.55 782.025 l 2
 434.616 782.025 441.267 781.866 449.5 781.55 c 128
 457.733 781.233 463.75 781.075 467.55 781.075 c 0
 484.65 781.075 508.084 781.55 537.85 782.5 c 128
 567.616 783.45 589.467 783.925 603.4 783.925 c 0
 650.9 783.925 695.866 780.759 738.3 774.425 c 0
 741.467 773.791 745.9 773.158 751.6 772.525 c 0
 776.934 768.725 796.092 765.4 809.075 762.55 c 128
 822.059 759.7 837.733 753.684 856.1 744.5 c 128
 874.467 735.316 890.616 723.125 904.55 707.925 c 0
 910.25 701.592 915.475 695.416 920.225 689.4 c 128
 924.975 683.373 929.25 676.882 933.05 669.925 c 128
 936.85 662.959 940.017 657.1 942.55 652.35 c 128
 945.084 647.6 947.459 640.791 949.675 631.925 c 128
 951.892 623.059 953.634 616.725 954.9 612.925 c 128
 956.166 609.125 957.592 602 959.175 591.55 c 128
 960.759 581.1 961.709 574.608 962.025 572.075 c 128
 962.342 569.541 963.134 562.1 964.4 549.75 c 128
 965.666 537.4 966.3 530.275 966.3 528.375 c 0
 967.566 519.509 968.2 512.858 968.2 508.425 c 0
 968.2 491.959 964.875 472.166 958.225 449.05 c 128
 951.575 425.934 947.616 407.408 946.35 393.475 c 1
 943.816 380.809 940.967 360.858 937.8 333.625 c 0
 937.8 329.825 937.009 322.384 935.425 311.3 c 128
 933.842 300.217 933.05 291.825 933.05 286.125 c 0
 933.05 284.225 933.366 282.642 934 281.375 c 0
 934.634 273.142 935.584 256.834 936.85 232.45 c 128
 938.116 208.066 939.225 191.125 940.175 181.625 c 128
 941.125 172.125 942.709 158.35 944.925 140.3 c 128
 947.142 122.25 950.309 105.941 954.425 91.375 c 128
 958.541 76.8086 963.45 61.6084 969.15 45.7754 c 1
 969.15 43.875 l 2
 969.15 32.4746 965.666 26.1416 958.7 24.875 c 1
 954.9 24.875 l 2
 945.4 24.875 939.384 29.9414 936.85 40.0752 c 1
 928.616 63.5088 921.334 87.417 915 111.8 c 128
 908.666 136.184 901.541 168.009 893.625 207.275 c 128
 885.709 246.541 880.483 271.559 877.95 282.325 c 1
62.8496 899.825 m 0
 67.917 896.025 72.8252 893.175 77.5752 891.275 c 128
 82.3252 889.375 89.4502 887.475 98.9502 885.575 c 128
 108.45 883.675 116.05 881.775 121.75 879.875 c 0
 122.384 879.241 123.017 878.925 123.65 878.925 c 128
 124.283 878.925 126.658 879.241 130.775 879.875 c 128
 134.892 880.509 138.217 880.825 140.75 880.825 c 2
 146.45 880.825 l 1
 156.584 879.559 162.917 876.075 165.45 870.375 c 1
 174.316 862.775 180.017 852.959 182.55 840.925 c 1
 183.816 845.364 186.033 851.698 189.2 859.925 c 128
 192.366 868.158 193.95 873.858 193.95 877.025 c 128
 193.95 880.191 193.634 882.725 193 884.625 c 0
 189.834 894.125 185.084 902.041 178.75 908.375 c 128
 172.416 914.715 162.916 921.049 150.25 927.375 c 0
 143.916 930.541 137.583 932.125 131.25 932.125 c 0
 127.45 932.125 117 930.225 99.9004 926.425 c 1
 85.9668 922.625 74.8838 915.975 66.6504 906.475 c 0
 65.3838 905.195 64.4336 903.928 63.7998 902.675 c 2
 63.7998 902.675 63.7998 902.675 63.3252 901.725 c 128
 63.0088 901.092 62.8496 900.459 62.8496 899.825 c 0
179.7 778.225 m 1
 174.634 761.759 171.783 750.041 171.15 743.075 c 0
 171.15 739.275 170.675 733.733 169.725 726.45 c 128
 168.775 719.166 168.3 714.892 168.3 713.625 c 0
 168.3 710.438 168.934 708.221 170.2 706.975 c 0
 174 703.175 180.017 701.275 188.25 701.275 c 0
 191.416 701.275 198.541 702.066 209.625 703.65 c 128
 220.709 705.233 229.1 706.025 234.8 706.025 c 0
 257.6 706.025 288.158 707.608 326.475 710.775 c 128
 364.791 713.941 395.666 715.525 419.1 715.525 c 2
 444.75 715.525 l 1
 459.316 714.892 484.175 714.259 519.325 713.625 c 128
 554.475 712.991 579.65 712.358 594.85 711.725 c 128
 610.05 711.092 631.108 708.875 658.025 705.075 c 128
 684.941 701.275 711.7 696.209 738.3 689.875 c 0
 771.233 682.275 797.834 672.775 818.1 661.375 c 128
 838.366 649.975 855.467 631.925 869.4 607.225 c 1
 881.44 587.592 889.198 568.275 892.675 549.275 c 128
 896.158 530.275 897.9 508.425 897.9 483.725 c 128
 897.9 459.025 898.85 438.759 900.75 422.925 c 0
 902.65 408.991 904.233 391.258 905.5 369.725 c 1
 906.134 375.425 907.084 384.608 908.35 397.275 c 0
 909.616 411.843 913.575 431.158 920.225 455.225 c 128
 926.875 479.291 930.2 497.025 930.2 508.425 c 0
 930.2 514.759 929.884 519.825 929.25 523.625 c 0
 929.25 527.425 928.616 534.866 927.35 545.95 c 128
 926.084 557.033 925.134 564.158 924.5 567.325 c 128
 923.866 570.491 922.916 576.509 921.65 585.375 c 128
 920.384 594.241 919.275 600.416 918.325 603.9 c 128
 917.375 607.386 915.95 612.77 914.05 620.05 c 128
 912.15 627.334 910.092 632.875 907.875 636.675 c 128
 905.658 640.475 903.125 645.225 900.275 650.925 c 128
 897.425 656.625 894.1 661.85 890.3 666.6 c 128
 886.5 671.35 882.066 676.259 877 681.325 c 0
 860.533 699.691 843.434 711.884 825.7 717.9 c 128
 807.967 723.916 781.366 729.459 745.9 734.525 c 0
 740.2 735.163 735.767 735.797 732.6 736.425 c 0
 691.432 742.759 648.365 745.925 603.4 745.925 c 0
 590.1 745.925 568.725 745.45 539.275 744.5 c 128
 509.825 743.55 485.916 743.075 467.55 743.075 c 0
 463.75 743.075 457.733 743.233 449.5 743.55 c 128
 441.267 743.866 434.616 744.025 429.55 744.025 c 2
 428.6 744.025 l 2
 407.066 744.025 378.407 741.65 342.625 736.9 c 128
 306.842 732.15 280.083 729.775 262.35 729.775 c 2
 249.05 729.775 l 2
 220.55 729.775 199.017 742.125 184.45 766.825 c 0
 181.916 771.892 180.334 775.691 179.7 778.225 c 1
EndSplineSet
EndChar

StartChar: Nacute
Encoding: 323 323 72
Width: 1001
Flags: HWO
LayerCount: 2
Fore
SplineSet
184.5 46.625 m 5
 185 46.625 l 6
 188.334 46.625 191.166 45.5156 193.5 43.2988 c 132
 195.834 41.082 197.166 38.2324 197.5 34.75 c 4
 197.5 31.582 196.25 28.7324 193.75 26.1992 c 132
 191.25 23.666 188.334 22.2412 185 21.9238 c 5
 94.5 21.9238 l 6
 90.834 21.9238 87.75 23.1113 85.25 25.4863 c 132
 82.75 27.8613 81.5 30.6328 81.5 33.7988 c 4
 81.5 37.2832 82.666 40.1328 85 42.3496 c 132
 87.334 44.5664 90.334 45.6738 94 45.6738 c 6
 125.5 46.1494 l 5
 125 114.074 l 5
 123.666 119.141 122.334 122.941 121 125.475 c 4
 114.666 136.241 106 144.791 95 151.125 c 4
 83.334 157.458 72.334 161.416 62 163 c 5
 61.5 148.274 l 6
 61.5 145.741 60.584 143.524 58.75 141.625 c 132
 56.916 139.725 54.666 138.774 52 138.774 c 6
 51.5 138.774 l 6
 48.834 138.774 46.584 139.725 44.75 141.625 c 132
 42.916 143.524 42 145.741 42 148.274 c 6
 42 163.949 l 5
 34.334 163.949 26.5 164.82 18.5 166.562 c 132
 10.5 168.304 6.5 170.282 6.5 172.5 c 4
 6.5 176.3 18.334 179.625 42 182.475 c 5
 42.5 213.824 l 5
 34.5 214.141 26.584 215.17 18.75 216.912 c 132
 10.916 218.654 7 220.475 7 222.375 c 4
 7 226.808 18.834 230.133 42.5 232.35 c 5
 42.5 249.925 l 6
 42.5 252.457 43.5 254.675 45.5 256.574 c 132
 47.5 258.475 49.834 259.425 52.5 259.425 c 6
 53 259.425 l 6
 55.334 259.425 57.5 258.157 59.5 255.625 c 132
 61.5 253.092 62.5 251.191 62.5 249.925 c 6
 62.5 232.35 l 5
 76.166 230.766 90.334 225.857 105 217.625 c 5
 113 213.508 119.834 208.6 125.5 202.899 c 5
 126 428.524 l 6
 126 438.342 125.166 444.041 123.5 445.625 c 5
 117.834 454.491 113.084 460.824 109.25 464.625 c 132
 105.416 468.425 100.5 470.641 94.5 471.274 c 4
 93.5 471.592 92.166 471.75 90.5 471.75 c 4
 83.166 471.75 75 470.008 66 466.524 c 5
 69.5 459.875 l 6
 70.5 458.607 71 457.024 71 455.125 c 4
 71 451.324 69.166 448.633 65.5 447.05 c 5
 64.166 446.1 62.666 445.625 61 445.625 c 4
 57 445.625 54 447.366 52 450.85 c 6
 47 459.875 l 5
 41 457.975 l 5
 32 454.175 26.834 452.274 25.5 452.274 c 4
 23.5 452.274 22.334 453.225 22 455.125 c 4
 21.666 455.441 21.5 456.074 21.5 457.024 c 4
 21.5 459.875 22.916 462.883 25.75 466.05 c 132
 28.584 469.217 31.666 471.274 35 472.225 c 5
 38.5 475.55 l 5
 34.5 483.149 l 6
 33.5 485.05 33 486.475 33 487.425 c 4
 33 489.641 34.666 491.699 38 493.6 c 5
 41.334 494.866 44 495.5 46 495.5 c 4
 48.334 495.5 50.334 494.55 52 492.649 c 5
 55.5 486 l 5
 67.5 492.332 79.166 495.5 90.5 495.5 c 4
 93.834 495.5 96.334 495.342 98 495.024 c 4
 106 494.074 113.25 491.304 119.75 486.712 c 132
 126.25 482.12 130.916 478.004 133.75 474.362 c 132
 136.584 470.72 140.334 465.258 145 457.975 c 4
 149 451.641 151 441.982 151 429 c 6
 151 428.524 l 5
 150.5 201 l 5
 155.166 206.383 162.5 211.925 172.5 217.625 c 4
 187.167 225.858 201.334 230.767 215 232.35 c 5
 215.5 251.824 l 6
 215.5 254.357 216.416 256.574 218.25 258.475 c 132
 220.084 260.375 222.334 261.324 225 261.324 c 6
 225.5 261.324 l 6
 227.834 261.324 230 260.058 232 257.524 c 132
 234 254.991 235 253.092 235 251.824 c 6
 235 232.35 l 5
 258.334 230.133 270 226.966 270 222.85 c 4
 270 220.949 266.166 219.05 258.5 217.149 c 132
 250.834 215.25 243 214.141 235 213.824 c 5
 234.5 182.475 l 5
 258.166 179.625 270 176.3 270 172.5 c 4
 270 170.6 266.084 168.699 258.25 166.8 c 132
 250.416 164.899 242.5 163.949 234.5 163.949 c 5
 234.5 150.175 l 5
 233.834 143.842 230.5 140.675 224.5 140.675 c 6
 224 140.675 l 6
 221.334 140.675 219.084 141.625 217.25 143.524 c 132
 215.416 145.425 214.5 147.641 214.5 150.175 c 6
 214.5 163 l 5
 203.834 161.416 193 157.457 182 151.125 c 132
 171 144.791 162.334 136.241 156 125.475 c 4
 154.334 122.625 153.5 109.8 153.5 87 c 6
 153.5 64.1992 l 6
 153.5 56.2832 153.334 50.2656 153 46.1494 c 5
 184.5 46.625 l 5
62 182 m 5
 75.666 180.416 89.834 175.508 104.5 167.274 c 5
 112.5 163.157 119.334 158.25 125 152.55 c 5
 125 166.8 l 5
 123.334 170.6 122 173.607 121 175.824 c 4
 115.333 186.274 106.666 194.824 95 201.475 c 5
 82.334 207.808 71.5 211.607 62.5 212.875 c 5
 62 182 l 5
215 212.875 m 5
 206 211.607 195.166 207.808 182.5 201.475 c 5
 171.166 194.824 162.334 186.274 156 175.824 c 5
 154.334 171.391 152.334 167.907 150 165.375 c 5
 150 150.649 l 5
 156 157.616 163.334 163.157 172 167.274 c 5
 186.667 175.509 200.834 180.416 214.5 182 c 5
 215 212.875 l 5
EndSplineSet
EndChar

StartChar: nacute
Encoding: 324 324 73
Width: 995
Flags: HW
LayerCount: 2
Fore
SplineSet
940.1 273 m 5
 854.6 273 l 5
 854.6 75 l 5
 939.15 75 l 5
 940.1 273 l 5
824.2 28 m 5
 629.134 29.333 506.9 30 457.5 30 c 4
 406.2 30 365.983 29.667 336.85 29 c 4
 315.95 29 294.416 27.667 272.25 25 c 5
 260.85 24.333 245.967 22.333 227.6 19 c 132
 209.233 15.667 194.35 13.667 182.95 13 c 4
 179.15 13 171.866 12.5 161.1 11.5 c 132
 150.333 10.5 142.1 10 136.4 10 c 4
 126.267 10 118.35 10.333 112.65 11 c 4
 111.384 11 108.375 11.5 103.625 12.5 c 132
 98.875 13.5 96.0254 14 95.0752 14 c 132
 94.125 14 91.5918 14.333 87.4746 15 c 132
 83.3584 15.667 80.667 16.167 79.4004 16.5 c 132
 78.1338 16.833 75.7588 17.5 72.2754 18.5 c 132
 68.792 19.5 66.2588 20.333 64.6748 21 c 132
 63.0918 21.667 60.7168 22.5 57.5498 23.5 c 132
 54.3838 24.5 51.8496 25.667 49.9502 27 c 132
 48.0498 28.333 45.6748 29.667 42.8252 31 c 132
 39.9746 32.333 37.2832 34 34.75 36 c 4
 28.417 41.333 25.25 48.667 25.25 58 c 4
 25.25 63.333 27.1504 66.667 30.9502 68 c 4
 38.5498 69.333 43.2998 70 45.2002 70 c 4
 54.7002 70 67.3662 67.167 83.2002 61.5 c 132
 99.0332 55.833 112.017 52.667 122.15 52 c 4
 126.584 52 132.283 51.667 139.25 51 c 132
 146.217 50.333 151.283 50 154.45 50 c 4
 167.75 50 180.1 53 191.5 59 c 4
 193.4 59.667 194.35 61 194.35 63 c 4
 194.35 68.333 188.65 74.333 177.25 81 c 4
 173.45 83.667 169.809 85.333 166.325 86 c 132
 162.842 86.667 158.566 87.167 153.5 87.5 c 132
 148.434 87.833 144.316 88.333 141.15 89 c 132
 137.983 89.667 133.233 90 126.9 90 c 6
 124.05 90 l 6
 113.917 90 106 92.667 100.3 98 c 5
 97.1338 102.667 95.5498 107.333 95.5498 112 c 4
 95.5498 120.667 98.4004 126 104.1 128 c 4
 111.066 130.667 117.717 132 124.05 132 c 4
 127.85 132 142.416 129 167.75 123 c 4
 181.684 119.667 198.783 114.5 219.05 107.5 c 132
 239.316 100.5 255.783 95.333 268.45 92 c 4
 279.217 89.333 289.666 88 299.8 88 c 6
 311.2 88 l 5
 318.166 88.667 326.875 90.5 337.325 93.5 c 132
 347.775 96.5 356.483 98.333 363.45 99 c 4
 381.184 101 414.116 103 462.25 105 c 5
 824.2 105 l 5
 824.2 302 l 5
 970.5 302 l 5
 970.5 28 l 5
 824.2 28 l 5
EndSplineSet
EndChar
